<svg id="svg" version="1.1" xmlns="http://www.w3.org/2000/svg" xmlns:xlink="http://www.w3.org/1999/xlink" width="400" height="400" viewBox="0, 0, 400,400"><g id="svgg"><path id="path0" d="M9.694 113.020 C 7.153 114.296,5.600 116.602,5.600 119.098 C 5.600 124.267,23.293 159.083,34.020 175.021 L 35.918 177.843 36.121 194.421 C 36.347 212.863,36.311 212.537,38.343 214.738 C 41.471 218.125,46.503 217.730,49.363 213.871 C 50.176 212.775,50.206 212.220,50.400 194.671 L 50.600 176.600 54.429 169.200 C 59.769 158.879,66.771 143.638,73.852 126.922 C 77.945 117.260,76.441 112.314,69.400 112.276 C 65.222 112.253,64.129 113.587,59.465 124.400 C 50.604 144.944,43.028 161.202,42.196 161.458 C 41.353 161.716,26.874 133.959,21.614 122.000 C 17.420 112.466,14.771 110.470,9.694 113.020 M93.383 112.752 C 88.416 115.008,87.873 119.151,87.828 155.200 C 87.800 176.793,87.897 178.917,89.245 186.400 C 93.036 207.441,103.328 216.924,122.400 216.949 C 150.358 216.986,159.273 197.079,156.410 141.000 C 154.964 112.666,154.945 112.600,148.169 112.600 C 141.926 112.600,140.927 114.682,141.563 126.372 C 144.982 189.314,141.166 203.756,121.400 202.684 C 108.748 201.998,103.405 193.813,102.023 173.000 C 101.248 161.332,101.637 136.677,102.806 123.400 C 103.398 116.667,102.120 113.861,97.890 112.604 C 95.368 111.856,95.356 111.856,93.383 112.752 M184.000 112.267 C 178.153 114.507,177.983 115.297,176.398 147.600 C 175.822 159.315,175.870 209.131,176.459 211.468 C 177.990 217.550,185.588 218.965,189.363 213.871 C 190.192 212.753,190.202 212.432,190.415 179.671 C 190.533 161.482,190.668 146.555,190.715 146.500 C 191.258 145.862,192.455 147.640,196.102 154.504 C 203.124 167.718,204.243 169.782,209.503 179.200 C 221.451 200.599,230.853 214.780,234.148 216.375 C 238.754 218.605,243.851 215.630,244.042 210.600 C 244.437 200.211,243.470 117.993,242.936 116.493 C 241.040 111.168,233.543 110.742,230.584 115.792 L 229.600 117.470 229.600 151.735 C 229.600 170.581,229.465 185.997,229.300 185.994 C 228.453 185.977,226.099 182.001,219.001 168.600 C 217.952 166.620,216.420 163.740,215.596 162.200 C 214.773 160.660,212.164 155.620,209.798 151.000 C 205.096 141.815,200.058 132.017,195.091 122.400 C 190.416 113.347,187.689 110.855,184.000 112.267 M343.400 112.967 C 341.948 113.615,340.191 115.428,339.665 116.823 C 337.837 121.664,338.202 208.618,340.067 212.830 C 342.549 218.434,350.464 218.424,352.994 212.814 C 353.696 211.256,353.709 210.449,353.268 195.889 C 352.530 171.550,352.385 151.822,352.819 134.434 C 353.258 116.814,353.236 116.564,351.092 114.496 C 348.922 112.402,345.977 111.817,343.400 112.967 M376.960 113.162 C 373.400 114.779,372.933 116.444,372.409 129.400 C 371.649 148.169,372.518 208.306,373.604 212.088 C 374.975 216.864,381.149 218.651,384.821 215.334 C 387.265 213.125,387.317 212.801,387.043 201.310 C 386.439 175.887,386.306 137.249,386.790 127.986 C 387.236 119.459,387.221 118.424,386.626 117.000 C 384.961 113.016,380.865 111.389,376.960 113.162 M285.600 113.241 C 269.975 114.178,265.671 114.776,263.666 116.287 C 259.583 119.364,259.750 125.028,264.010 127.927 C 265.544 128.971,266.196 128.976,277.600 128.018 C 283.717 127.504,302.010 126.831,302.700 127.094 C 303.460 127.385,303.388 127.524,300.361 131.600 C 280.317 158.585,255.767 205.034,257.990 211.769 C 259.525 216.422,260.759 216.807,275.045 217.091 C 287.803 217.345,287.936 217.323,286.783 215.167 C 286.519 214.675,286.216 212.816,286.110 211.036 C 285.926 207.969,286.118 206.898,287.389 203.900 C 287.664 203.251,287.244 203.200,281.630 203.200 C 274.232 203.200,274.332 203.305,276.930 198.237 C 290.341 172.077,306.499 146.307,319.967 129.600 C 325.646 122.555,326.232 119.434,322.533 115.925 C 319.649 113.190,304.635 112.099,285.600 113.241 M304.209 196.825 C 302.198 197.829,300.215 199.740,299.397 201.463 C 299.048 202.199,298.636 202.807,298.481 202.816 C 294.666 203.032,293.868 203.201,292.270 204.138 C 287.868 206.718,287.588 213.227,291.737 216.564 L 293.274 217.800 311.395 217.800 C 331.765 217.800,330.701 217.959,331.656 214.771 C 332.430 212.188,330.831 209.134,328.429 208.606 C 327.519 208.407,327.228 208.076,327.030 207.018 C 326.512 204.258,323.908 202.257,320.895 202.302 C 319.321 202.326,319.096 202.193,317.996 200.594 C 315.002 196.243,308.785 194.543,304.209 196.825 " stroke="none" fill="#3bb3fa" fill-rule="evenodd"></path><path id="path1" d="M0.000 200.000 L 0.000 400.000 200.000 400.000 L 400.000 400.000 400.000 200.000 L 400.000 0.000 200.000 0.000 L 0.000 0.000 0.000 200.000 M16.382 112.391 C 18.588 113.516,19.047 114.235,22.396 121.800 C 25.997 129.935,34.063 146.054,38.009 153.000 C 38.509 153.880,39.455 155.590,40.110 156.800 C 42.218 160.688,42.080 160.737,44.731 155.169 C 46.032 152.436,47.500 149.300,47.993 148.200 C 48.486 147.100,49.319 145.255,49.845 144.100 C 50.370 142.945,51.230 141.055,51.755 139.900 C 52.281 138.745,53.070 136.990,53.510 136.000 C 55.269 132.037,56.132 130.105,57.045 128.088 C 57.570 126.927,58.000 125.897,58.000 125.800 C 58.000 125.703,58.469 124.583,59.043 123.312 C 59.617 122.040,60.337 120.415,60.643 119.700 C 62.154 116.174,62.543 115.465,63.686 114.163 C 68.320 108.885,77.200 112.069,77.200 119.009 C 77.200 120.931,76.533 123.032,74.407 127.800 C 74.015 128.680,73.112 130.750,72.400 132.400 C 71.110 135.391,70.447 136.901,68.846 140.500 C 68.380 141.545,67.620 143.255,67.154 144.300 C 66.689 145.345,65.951 147.010,65.513 148.000 C 65.075 148.990,64.211 150.880,63.594 152.200 C 57.848 164.475,58.216 163.715,53.630 172.743 L 50.713 178.486 51.000 194.943 C 51.320 213.233,51.273 213.658,48.708 215.816 C 43.126 220.513,35.670 216.907,35.556 209.455 C 35.533 207.885,35.398 200.120,35.256 192.200 L 35.000 177.800 32.960 174.800 C 26.389 165.135,14.222 142.767,9.027 130.800 C 8.407 129.370,7.492 127.295,6.995 126.189 C 4.443 120.506,4.274 117.624,6.323 114.757 C 8.546 111.648,12.912 110.620,16.382 112.391 M99.305 112.100 C 103.590 114.495,104.353 117.977,103.184 129.800 C 102.623 135.465,102.642 174.470,103.208 178.332 C 105.761 195.776,110.860 202.010,122.566 201.996 C 139.708 201.975,144.448 184.948,141.215 135.000 C 140.164 118.771,140.174 117.456,141.354 115.443 C 144.808 109.548,154.354 110.788,155.789 117.318 C 157.239 123.919,158.057 175.874,156.816 182.600 C 154.350 195.969,151.785 202.276,146.391 208.242 C 140.330 214.944,133.206 217.803,122.600 217.790 C 117.445 217.783,112.062 217.065,109.400 216.028 C 95.561 210.641,89.187 199.338,87.166 176.600 C 86.298 166.837,87.218 121.121,88.360 117.289 C 89.675 112.875,95.636 110.049,99.305 112.100 M189.408 112.584 C 190.331 113.125,191.406 114.055,191.797 114.651 C 192.818 116.210,196.375 123.017,206.399 142.600 C 211.603 152.766,216.084 161.418,217.999 165.000 C 218.823 166.540,220.357 169.420,221.409 171.400 C 222.461 173.380,223.771 175.810,224.319 176.800 C 224.868 177.790,225.854 179.590,226.512 180.800 C 227.170 182.010,227.863 183.171,228.054 183.380 C 228.249 183.594,228.400 169.710,228.400 151.544 C 228.400 117.084,228.401 117.059,230.385 114.521 C 233.740 110.227,240.646 110.665,243.389 115.346 L 244.400 117.070 244.400 151.674 C 244.400 170.707,244.594 191.797,244.830 198.541 C 245.353 213.440,245.110 214.603,240.965 217.039 C 235.285 220.377,230.877 216.593,220.412 199.400 C 215.059 190.606,212.269 185.869,209.694 181.200 C 209.148 180.210,208.385 178.860,207.999 178.200 C 207.614 177.540,206.761 176.010,206.105 174.800 C 205.448 173.590,204.370 171.610,203.708 170.400 C 202.523 168.233,200.893 165.210,198.259 160.300 C 197.522 158.925,195.876 155.820,194.603 153.400 C 193.330 150.980,192.161 148.857,192.005 148.681 C 191.381 147.977,191.087 158.735,191.005 185.313 L 190.918 213.227 189.728 214.698 C 185.916 219.407,179.066 218.826,176.383 213.566 C 173.804 208.511,175.139 123.557,177.904 116.777 C 179.791 112.151,185.265 110.155,189.408 112.584 M349.320 112.246 C 353.720 114.465,354.177 115.853,353.860 126.031 C 353.717 130.634,353.482 138.205,353.337 142.856 C 353.193 147.506,353.312 162.491,353.602 176.156 C 353.892 189.820,354.145 203.638,354.165 206.862 L 354.200 212.723 353.000 214.431 C 349.487 219.432,342.105 218.902,339.387 213.454 C 337.458 209.586,336.674 128.006,338.474 118.333 C 339.434 113.168,344.978 110.056,349.320 112.246 M383.796 112.577 C 384.713 113.114,385.985 114.329,386.623 115.277 L 387.783 117.000 387.592 126.600 C 387.260 143.228,387.543 191.801,388.029 201.490 C 388.454 209.963,388.435 210.931,387.816 212.490 C 384.970 219.668,375.442 219.738,372.901 212.600 C 371.636 209.049,370.831 131.206,371.954 121.066 C 372.848 112.990,378.090 109.232,383.796 112.577 M317.600 112.978 C 322.043 113.822,324.339 115.602,325.224 118.890 C 326.192 122.484,325.501 124.017,319.576 131.421 C 315.579 136.417,315.353 136.723,309.707 144.800 C 303.398 153.824,295.865 165.708,289.803 176.200 C 285.363 183.885,282.909 188.392,279.188 195.700 L 275.980 202.000 282.166 202.000 C 288.879 202.000,289.145 202.091,288.277 204.096 C 286.942 207.180,286.800 207.766,286.800 210.200 C 286.800 212.568,287.021 213.532,288.103 215.873 C 289.074 217.974,288.938 218.000,276.879 218.000 C 255.351 218.000,253.155 215.254,260.885 198.000 C 261.328 197.010,262.046 195.390,262.479 194.400 C 263.621 191.793,270.166 178.650,271.842 175.600 C 272.627 174.170,273.906 171.830,274.683 170.400 C 280.215 160.224,292.243 141.318,299.590 131.250 C 300.934 129.408,301.939 127.805,301.822 127.688 C 301.705 127.571,298.322 127.684,294.305 127.939 C 290.287 128.194,285.594 128.402,283.877 128.401 C 280.705 128.400,275.335 128.880,270.121 129.631 C 260.404 131.030,255.732 120.186,263.883 115.149 C 267.925 112.651,307.462 111.053,317.600 112.978 M314.936 196.542 C 315.971 197.148,317.470 198.518,318.268 199.587 C 319.160 200.782,319.932 201.448,320.273 201.317 C 322.318 200.532,327.600 204.046,327.600 206.192 C 327.600 206.942,327.980 207.378,329.162 207.981 C 332.117 209.488,333.644 214.212,331.887 216.409 C 329.890 218.907,330.806 218.800,311.424 218.800 L 293.757 218.800 291.941 217.649 C 284.970 213.228,288.248 202.050,296.533 201.987 C 298.065 201.976,298.285 201.835,299.247 200.248 C 302.195 195.386,309.870 193.573,314.936 196.542 " stroke="none" fill="#2c2c2c" fill-rule="evenodd"></path><path id="path2" d="M295.921 112.699 C 298.188 112.770,301.788 112.770,303.921 112.698 C 306.055 112.626,304.200 112.568,299.800 112.568 C 295.400 112.568,293.655 112.627,295.921 112.699 M100.000 112.925 C 100.000 112.994,100.585 113.579,101.300 114.225 L 102.600 115.400 101.425 114.100 C 100.330 112.888,100.000 112.616,100.000 112.925 M281.105 113.083 C 281.602 113.179,282.322 113.175,282.705 113.075 C 283.087 112.975,282.680 112.896,281.800 112.901 C 280.920 112.905,280.607 112.987,281.105 113.083 M276.900 113.476 C 277.285 113.576,277.915 113.576,278.300 113.476 C 278.685 113.375,278.370 113.293,277.600 113.293 C 276.830 113.293,276.515 113.375,276.900 113.476 M321.600 114.525 C 321.600 114.594,322.185 115.179,322.900 115.825 L 324.200 117.000 323.025 115.700 C 321.930 114.488,321.600 114.216,321.600 114.525 M387.334 120.800 C 387.334 122.450,387.405 123.125,387.491 122.300 C 387.578 121.475,387.578 120.125,387.491 119.300 C 387.405 118.475,387.334 119.150,387.334 120.800 M228.898 151.524 C 228.824 176.589,228.686 184.776,228.338 184.562 C 228.041 184.378,227.985 184.453,228.183 184.773 C 229.087 186.235,229.197 182.222,229.100 151.378 L 228.995 118.200 228.898 151.524 M338.493 120.000 C 338.493 120.770,338.575 121.085,338.676 120.700 C 338.776 120.315,338.776 119.685,338.676 119.300 C 338.575 118.915,338.493 119.230,338.493 120.000 M155.701 120.600 C 155.705 121.480,155.787 121.793,155.883 121.295 C 155.979 120.798,155.975 120.078,155.875 119.695 C 155.775 119.313,155.696 119.720,155.701 120.600 M88.093 121.600 C 88.093 122.370,88.175 122.685,88.276 122.300 C 88.376 121.915,88.376 121.285,88.276 120.900 C 88.175 120.515,88.093 120.830,88.093 121.600 M372.109 123.600 C 372.109 124.590,372.187 124.995,372.282 124.500 C 372.378 124.005,372.378 123.195,372.282 122.700 C 372.187 122.205,372.109 122.610,372.109 123.600 M140.901 126.200 C 140.905 127.080,140.987 127.393,141.083 126.895 C 141.179 126.398,141.175 125.678,141.075 125.295 C 140.975 124.913,140.896 125.320,140.901 126.200 M102.901 127.000 C 102.905 127.880,102.987 128.193,103.083 127.695 C 103.179 127.198,103.175 126.478,103.075 126.095 C 102.975 125.713,102.896 126.120,102.901 127.000 M176.893 128.400 C 176.893 129.170,176.975 129.485,177.076 129.100 C 177.176 128.715,177.176 128.085,177.076 127.700 C 176.975 127.315,176.893 127.630,176.893 128.400 M294.700 127.489 C 295.415 127.578,296.585 127.578,297.300 127.489 C 298.015 127.401,297.430 127.328,296.000 127.328 C 294.570 127.328,293.985 127.401,294.700 127.489 M353.324 129.400 C 353.326 130.720,353.401 131.212,353.490 130.493 C 353.579 129.774,353.577 128.694,353.486 128.093 C 353.395 127.492,353.322 128.080,353.324 129.400 M288.100 127.887 C 288.705 127.978,289.695 127.978,290.300 127.887 C 290.905 127.795,290.410 127.720,289.200 127.720 C 287.990 127.720,287.495 127.795,288.100 127.887 M278.500 128.276 C 278.885 128.376,279.515 128.376,279.900 128.276 C 280.285 128.175,279.970 128.093,279.200 128.093 C 278.430 128.093,278.115 128.175,278.500 128.276 M156.109 130.400 C 156.109 131.390,156.187 131.795,156.282 131.300 C 156.378 130.805,156.378 129.995,156.282 129.500 C 156.187 129.005,156.109 129.410,156.109 130.400 M87.720 131.200 C 87.720 132.410,87.795 132.905,87.887 132.300 C 87.978 131.695,87.978 130.705,87.887 130.100 C 87.795 129.495,87.720 129.990,87.720 131.200 M141.293 130.400 C 141.293 131.170,141.375 131.485,141.476 131.100 C 141.576 130.715,141.576 130.085,141.476 129.700 C 141.375 129.315,141.293 129.630,141.293 130.400 M102.514 131.800 C 102.517 132.900,102.595 133.303,102.687 132.695 C 102.779 132.086,102.777 131.186,102.682 130.695 C 102.587 130.203,102.511 130.700,102.514 131.800 M338.131 132.600 C 338.133 134.140,338.205 134.721,338.292 133.891 C 338.379 133.061,338.377 131.801,338.289 131.091 C 338.200 130.381,338.129 131.060,338.131 132.600 M386.940 136.000 C 386.940 137.870,387.009 138.635,387.093 137.700 C 387.177 136.765,387.177 135.235,387.093 134.300 C 387.009 133.365,386.940 134.130,386.940 136.000 M156.509 135.200 C 156.509 136.190,156.587 136.595,156.682 136.100 C 156.778 135.605,156.778 134.795,156.682 134.300 C 156.587 133.805,156.509 134.210,156.509 135.200 M352.948 138.800 C 352.948 141.110,353.014 142.055,353.095 140.900 C 353.176 139.745,353.176 137.855,353.095 136.700 C 353.014 135.545,352.948 136.490,352.948 138.800 M87.331 138.200 C 87.333 139.740,87.405 140.321,87.492 139.491 C 87.579 138.661,87.577 137.401,87.489 136.691 C 87.400 135.981,87.329 136.660,87.331 138.200 M176.509 137.200 C 176.509 138.190,176.587 138.595,176.682 138.100 C 176.778 137.605,176.778 136.795,176.682 136.300 C 176.587 135.805,176.509 136.210,176.509 137.200 M371.761 142.800 C 371.761 146.210,371.822 147.605,371.897 145.900 C 371.972 144.195,371.972 141.405,371.897 139.700 C 371.822 137.995,371.761 139.390,371.761 142.800 M141.693 139.200 C 141.693 139.970,141.775 140.285,141.876 139.900 C 141.976 139.515,141.976 138.885,141.876 138.500 C 141.775 138.115,141.693 138.430,141.693 139.200 M176.109 142.400 C 176.109 143.390,176.187 143.795,176.282 143.300 C 176.378 142.805,176.378 141.995,176.282 141.500 C 176.187 141.005,176.109 141.410,176.109 142.400 M337.777 152.600 C 337.777 159.200,337.832 161.956,337.899 158.725 C 337.966 155.493,337.966 150.093,337.899 146.725 C 337.832 143.356,337.777 146.000,337.777 152.600 M142.128 145.600 C 142.128 147.030,142.201 147.615,142.289 146.900 C 142.378 146.185,142.378 145.015,142.289 144.300 C 142.201 143.585,142.128 144.170,142.128 145.600 M102.175 155.600 C 102.175 161.650,102.231 164.125,102.299 161.100 C 102.367 158.075,102.367 153.125,102.299 150.100 C 102.231 147.075,102.175 149.550,102.175 155.600 M386.566 152.400 C 386.566 156.470,386.625 158.135,386.698 156.100 C 386.771 154.065,386.771 150.735,386.698 148.700 C 386.625 146.665,386.566 148.330,386.566 152.400 M156.948 150.400 C 156.948 152.710,157.014 153.655,157.095 152.500 C 157.176 151.345,157.176 149.455,157.095 148.300 C 157.014 147.145,156.948 148.090,156.948 150.400 M190.942 153.400 C 190.941 155.380,191.008 156.240,191.092 155.312 C 191.176 154.384,191.177 152.764,191.095 151.712 C 191.012 150.660,190.943 151.420,190.942 153.400 M175.734 156.400 C 175.734 158.050,175.805 158.725,175.891 157.900 C 175.978 157.075,175.978 155.725,175.891 154.900 C 175.805 154.075,175.734 154.750,175.734 156.400 M371.763 162.800 C 371.763 166.430,371.823 167.915,371.898 166.100 C 371.972 164.285,371.972 161.315,371.898 159.500 C 371.823 157.685,371.763 159.170,371.763 162.800 M352.962 168.600 C 352.962 172.120,353.024 173.506,353.098 171.681 C 353.172 169.856,353.172 166.976,353.097 165.281 C 353.022 163.586,352.961 165.080,352.962 168.600 M175.367 170.200 C 175.367 174.380,175.426 176.036,175.498 173.879 C 175.571 171.723,175.570 168.303,175.498 166.279 C 175.425 164.256,175.366 166.020,175.367 170.200 M190.572 172.000 C 190.572 177.170,190.629 179.285,190.699 176.700 C 190.768 174.115,190.768 169.885,190.699 167.300 C 190.629 164.715,190.572 166.830,190.572 172.000 M386.962 173.800 C 386.962 177.320,387.024 178.706,387.098 176.881 C 387.172 175.056,387.172 172.176,387.097 170.481 C 387.022 168.786,386.961 170.280,386.962 173.800 M156.920 174.000 C 156.920 175.210,156.995 175.705,157.087 175.100 C 157.178 174.495,157.178 173.505,157.087 172.900 C 156.995 172.295,156.920 172.790,156.920 174.000 M142.101 173.800 C 142.105 174.680,142.187 174.993,142.283 174.495 C 142.379 173.998,142.375 173.278,142.275 172.895 C 142.175 172.513,142.096 172.920,142.101 173.800 M338.160 178.200 C 338.161 181.500,338.222 182.797,338.298 181.082 C 338.373 179.367,338.372 176.667,338.297 175.082 C 338.221 173.497,338.159 174.900,338.160 178.200 M87.301 174.600 C 87.305 175.480,87.387 175.793,87.483 175.295 C 87.579 174.798,87.575 174.078,87.475 173.695 C 87.375 173.313,87.296 173.720,87.301 174.600 M35.359 183.600 C 35.359 186.790,35.421 188.095,35.497 186.500 C 35.573 184.905,35.573 182.295,35.497 180.700 C 35.421 179.105,35.359 180.410,35.359 183.600 M353.337 185.800 C 353.339 187.560,353.409 188.230,353.493 187.289 C 353.578 186.349,353.577 184.909,353.491 184.089 C 353.405 183.270,353.336 184.040,353.337 185.800 M175.367 192.000 C 175.367 196.290,175.426 198.045,175.498 195.900 C 175.570 193.755,175.570 190.245,175.498 188.100 C 175.426 185.955,175.367 187.710,175.367 192.000 M244.162 190.600 C 244.162 194.120,244.224 195.506,244.298 193.681 C 244.372 191.856,244.372 188.976,244.297 187.281 C 244.222 185.586,244.161 187.080,244.162 190.600 M50.569 194.000 C 50.569 198.510,50.627 200.355,50.698 198.100 C 50.770 195.845,50.770 192.155,50.698 189.900 C 50.627 187.645,50.569 189.490,50.569 194.000 M372.137 193.400 C 372.139 195.160,372.209 195.830,372.293 194.889 C 372.378 193.949,372.377 192.509,372.291 191.689 C 372.205 190.870,372.136 191.640,372.137 193.400 M190.560 200.200 C 190.561 203.500,190.622 204.797,190.698 203.082 C 190.773 201.367,190.772 198.667,190.697 197.082 C 190.621 195.497,190.559 196.900,190.560 200.200 M308.100 195.476 C 308.485 195.576,309.115 195.576,309.500 195.476 C 309.885 195.375,309.570 195.293,308.800 195.293 C 308.030 195.293,307.715 195.375,308.100 195.476 M387.331 197.800 C 387.333 199.340,387.405 199.921,387.492 199.091 C 387.579 198.261,387.577 197.001,387.489 196.291 C 387.400 195.581,387.329 196.260,387.331 197.800 M338.531 200.200 C 338.533 201.740,338.605 202.321,338.692 201.491 C 338.779 200.661,338.777 199.401,338.689 198.691 C 338.600 197.981,338.529 198.660,338.531 200.200 M35.748 202.000 C 35.748 204.310,35.814 205.255,35.895 204.100 C 35.976 202.945,35.976 201.055,35.895 199.900 C 35.814 198.745,35.748 199.690,35.748 202.000 M372.531 202.200 C 372.533 203.740,372.605 204.321,372.692 203.491 C 372.779 202.661,372.777 201.401,372.689 200.691 C 372.600 199.981,372.529 200.660,372.531 202.200 M244.531 204.200 C 244.533 205.740,244.605 206.321,244.692 205.491 C 244.779 204.661,244.777 203.401,244.689 202.691 C 244.600 201.981,244.529 202.660,244.531 204.200 M353.728 204.000 C 353.728 205.430,353.801 206.015,353.889 205.300 C 353.978 204.585,353.978 203.415,353.889 202.700 C 353.801 201.985,353.728 202.570,353.728 204.000 M279.500 202.695 C 280.655 202.776,282.545 202.776,283.700 202.695 C 284.855 202.614,283.910 202.548,281.600 202.548 C 279.290 202.548,278.345 202.614,279.500 202.695 M387.728 206.000 C 387.728 207.430,387.801 208.015,387.889 207.300 C 387.978 206.585,387.978 205.415,387.889 204.700 C 387.801 203.985,387.728 204.570,387.728 206.000 M175.734 207.200 C 175.734 208.850,175.805 209.525,175.891 208.700 C 175.978 207.875,175.978 206.525,175.891 205.700 C 175.805 204.875,175.734 205.550,175.734 207.200 M338.924 208.200 C 338.926 209.520,339.001 210.012,339.090 209.293 C 339.179 208.574,339.177 207.494,339.086 206.893 C 338.995 206.292,338.922 206.880,338.924 208.200 M288.514 210.600 C 288.517 211.700,288.595 212.103,288.687 211.495 C 288.779 210.886,288.777 209.986,288.682 209.495 C 288.587 209.003,288.511 209.500,288.514 210.600 M264.905 217.487 C 265.514 217.579,266.414 217.577,266.905 217.482 C 267.397 217.387,266.900 217.311,265.800 217.314 C 264.700 217.317,264.297 217.395,264.905 217.487 " stroke="none" fill="#2f5f7b" fill-rule="evenodd"></path><path id="path3" d="M9.012 112.913 C 7.494 113.772,5.596 116.026,5.604 116.959 C 5.606 117.202,6.057 116.651,6.606 115.735 C 7.303 114.572,8.230 113.757,9.680 113.035 C 10.823 112.466,11.497 112.003,11.179 112.007 C 10.860 112.010,9.885 112.418,9.012 112.913 M13.233 112.144 C 13.705 112.550,15.643 112.793,15.410 112.416 C 15.268 112.187,14.683 112.000,14.110 112.000 C 13.536 112.000,13.142 112.065,13.233 112.144 M66.800 112.418 C 66.362 112.715,66.524 112.752,67.400 112.556 C 68.871 112.227,69.190 111.998,68.167 112.006 C 67.745 112.009,67.130 112.195,66.800 112.418 M71.675 112.633 C 72.933 113.020,73.952 113.698,74.775 114.696 C 75.449 115.513,76.000 115.997,76.000 115.770 C 76.000 114.619,72.282 111.981,70.726 112.028 C 70.145 112.045,70.499 112.271,71.675 112.633 M93.000 112.466 C 91.002 113.568,88.775 116.343,88.816 117.680 C 88.824 117.966,89.104 117.571,89.437 116.803 C 90.265 114.894,91.500 113.633,93.400 112.756 C 94.280 112.350,94.730 112.019,94.400 112.021 C 94.070 112.023,93.440 112.223,93.000 112.466 M98.012 112.614 C 100.153 113.274,101.850 114.912,102.614 117.055 C 102.917 117.905,103.173 118.273,103.182 117.874 C 103.238 115.575,99.485 111.956,97.120 112.028 C 96.536 112.046,96.862 112.260,98.012 112.614 M145.738 112.306 C 145.484 112.468,146.592 112.600,148.200 112.600 C 149.808 112.600,150.916 112.468,150.662 112.306 C 150.408 112.144,149.300 112.012,148.200 112.012 C 147.100 112.012,145.992 112.144,145.738 112.306 M186.033 112.144 C 186.125 112.223,186.740 112.408,187.400 112.556 C 188.276 112.752,188.438 112.715,188.000 112.418 C 187.460 112.053,185.632 111.798,186.033 112.144 M233.800 112.400 C 233.508 112.873,233.899 112.873,235.000 112.400 C 235.771 112.069,235.769 112.055,234.924 112.028 C 234.442 112.013,233.936 112.180,233.800 112.400 M237.233 112.144 C 237.325 112.223,237.940 112.408,238.600 112.556 C 239.476 112.752,239.638 112.715,239.200 112.418 C 238.660 112.053,236.832 111.798,237.233 112.144 M344.138 112.306 C 343.884 112.468,344.812 112.600,346.200 112.600 C 347.588 112.600,348.516 112.468,348.262 112.306 C 348.008 112.144,347.080 112.012,346.200 112.012 C 345.320 112.012,344.392 112.144,344.138 112.306 M377.100 112.629 C 375.559 113.465,375.729 113.673,377.387 112.980 C 380.899 111.512,384.833 113.084,386.448 116.600 C 386.852 117.480,387.186 117.966,387.191 117.680 C 387.253 114.016,380.643 110.707,377.100 112.629 M17.564 114.342 C 18.354 115.190,19.078 115.817,19.173 115.736 C 19.378 115.560,16.758 112.800,16.385 112.800 C 16.244 112.800,16.774 113.494,17.564 114.342 M64.646 113.635 C 64.062 114.095,63.318 114.986,62.992 115.615 C 62.107 117.326,62.281 117.607,63.230 116.000 C 63.684 115.230,64.539 114.196,65.128 113.702 C 66.481 112.569,66.073 112.513,64.646 113.635 M142.806 114.194 C 142.063 114.961,141.532 115.651,141.627 115.727 C 141.722 115.804,142.475 115.177,143.300 114.333 C 144.125 113.490,144.655 112.800,144.478 112.800 C 144.302 112.800,143.549 113.427,142.806 114.194 M152.458 113.657 C 153.039 114.175,153.894 115.230,154.356 116.000 C 154.819 116.770,155.198 117.202,155.199 116.959 C 155.201 116.204,153.448 113.910,152.400 113.297 C 151.408 112.718,151.409 112.721,152.458 113.657 M179.939 114.467 C 179.092 115.383,178.400 116.398,178.400 116.722 C 178.400 117.046,178.867 116.612,179.437 115.756 C 180.008 114.900,180.863 113.889,181.337 113.509 C 181.812 113.129,182.037 112.814,181.839 112.809 C 181.640 112.804,180.785 113.550,179.939 114.467 M190.300 114.333 C 191.125 115.177,191.878 115.804,191.973 115.727 C 192.203 115.542,189.533 112.800,189.122 112.800 C 188.945 112.800,189.475 113.490,190.300 114.333 M231.138 114.417 C 230.292 115.306,229.601 116.341,229.601 116.717 C 229.602 117.131,229.928 116.849,230.430 116.000 C 230.884 115.230,231.739 114.196,232.328 113.702 C 232.918 113.208,233.237 112.803,233.038 112.802 C 232.839 112.801,231.984 113.528,231.138 114.417 M240.000 112.925 C 240.000 112.993,240.585 113.472,241.300 113.988 L 242.600 114.927 241.630 113.863 C 240.802 112.955,240.000 112.493,240.000 112.925 M281.000 113.200 L 278.600 113.466 281.000 113.488 C 282.320 113.500,285.110 113.380,287.200 113.220 L 291.000 112.929 287.200 112.932 C 285.110 112.933,282.320 113.054,281.000 113.200 M308.833 112.947 C 308.925 113.029,310.800 113.195,313.000 113.317 C 315.722 113.469,316.489 113.429,315.400 113.193 C 313.837 112.854,308.503 112.655,308.833 112.947 M341.783 113.509 C 341.333 113.889,340.711 114.560,340.400 115.000 C 340.089 115.440,340.545 115.170,341.413 114.400 C 342.281 113.630,343.068 112.955,343.162 112.900 C 343.256 112.845,343.168 112.804,342.967 112.809 C 342.765 112.814,342.232 113.129,341.783 113.509 M350.777 114.226 C 353.135 116.357,353.303 117.273,353.078 126.720 C 352.939 132.544,352.972 133.695,353.189 130.600 C 354.034 118.581,353.697 116.154,350.845 113.700 C 349.128 112.223,349.068 112.683,350.777 114.226 M271.200 114.022 C 270.335 114.217,271.023 114.255,273.000 114.120 C 274.760 114.001,276.275 113.835,276.367 113.751 C 276.661 113.484,272.649 113.694,271.200 114.022 M318.033 113.744 C 318.125 113.823,318.740 114.008,319.400 114.156 C 320.276 114.352,320.438 114.315,320.000 114.018 C 319.460 113.653,317.632 113.398,318.033 113.744 M374.520 114.500 C 373.530 115.586,372.794 116.957,372.816 117.674 C 372.825 117.963,373.183 117.496,373.613 116.635 C 374.042 115.774,374.693 114.739,375.059 114.335 C 375.425 113.931,375.637 113.600,375.532 113.600 C 375.426 113.600,374.971 114.005,374.520 114.500 M265.800 114.819 C 265.242 115.071,265.485 115.107,266.600 114.938 C 267.480 114.804,268.275 114.628,268.367 114.547 C 268.710 114.244,266.568 114.471,265.800 114.819 M320.838 114.500 C 320.932 114.555,321.727 115.230,322.604 116.000 L 324.200 117.400 322.822 115.900 C 322.063 115.075,321.268 114.400,321.055 114.400 C 320.841 114.400,320.744 114.445,320.838 114.500 M242.886 116.100 C 243.287 116.803,243.445 123.750,243.606 147.800 L 243.812 178.600 243.906 148.080 C 244.001 117.083,243.925 115.200,242.576 115.200 C 242.464 115.200,242.603 115.605,242.886 116.100 M262.778 116.699 L 261.400 118.198 262.800 117.002 C 263.570 116.344,264.371 115.670,264.580 115.503 C 264.816 115.315,264.808 115.200,264.558 115.200 C 264.338 115.200,263.537 115.875,262.778 116.699 M19.217 116.700 C 19.239 117.101,20.762 119.870,20.783 119.549 C 20.811 119.135,19.605 116.400,19.395 116.400 C 19.288 116.400,19.208 116.535,19.217 116.700 M76.200 119.200 C 76.200 120.698,76.332 121.716,76.494 121.462 C 76.656 121.208,76.788 120.190,76.788 119.200 C 76.788 118.210,76.656 117.192,76.494 116.938 C 76.332 116.684,76.200 117.702,76.200 119.200 M141.043 117.033 C 140.730 117.849,140.810 123.456,141.184 126.800 C 141.391 128.658,141.463 127.546,141.437 122.903 C 141.417 119.329,141.374 116.404,141.343 116.403 C 141.311 116.401,141.176 116.685,141.043 117.033 M193.421 119.241 C 194.208 120.804,194.927 122.007,195.019 121.915 C 195.205 121.729,192.451 116.400,192.168 116.400 C 192.070 116.400,192.634 117.678,193.421 119.241 M177.869 118.756 C 177.721 119.495,177.623 120.933,177.651 121.950 C 177.696 123.592,177.741 123.488,178.057 121.021 C 178.439 118.044,178.313 116.534,177.869 118.756 M229.298 151.076 C 229.240 171.120,229.050 184.845,228.831 184.981 C 228.627 185.107,227.715 183.857,226.803 182.205 C 225.890 180.552,225.059 179.200,224.954 179.200 C 224.548 179.200,228.232 185.593,228.757 185.800 C 229.636 186.145,229.610 187.381,229.500 151.564 L 229.395 117.400 229.298 151.076 M338.689 120.359 C 338.530 121.766,338.426 124.376,338.457 126.159 C 338.511 129.156,338.541 129.024,338.862 124.400 C 339.246 118.863,339.139 116.365,338.689 120.359 M155.309 120.400 C 155.306 121.610,155.432 123.950,155.588 125.600 L 155.871 128.600 155.896 125.600 C 155.910 123.950,155.784 121.610,155.617 120.400 L 155.313 118.200 155.309 120.400 M88.199 122.874 C 88.045 125.143,87.989 127.450,88.076 128.000 C 88.162 128.550,88.377 126.782,88.553 124.070 C 88.730 121.359,88.785 119.052,88.677 118.944 C 88.569 118.836,88.354 120.604,88.199 122.874 M20.834 120.200 C 20.834 120.420,21.178 121.230,21.600 122.000 C 22.022 122.770,22.366 123.220,22.366 123.000 C 22.366 122.780,22.022 121.970,21.600 121.200 C 21.178 120.430,20.834 119.980,20.834 120.200 M260.256 120.919 C 260.129 121.424,260.184 122.369,260.378 123.019 C 260.692 124.067,260.735 123.964,260.766 122.100 C 260.802 119.849,260.627 119.441,260.256 120.919 M372.302 123.800 C 372.138 126.000,372.030 129.510,372.062 131.600 C 372.111 134.855,372.168 134.482,372.464 129.000 C 372.862 121.624,372.745 117.857,372.302 123.800 M102.595 124.938 C 102.438 127.242,102.394 129.369,102.497 129.664 C 102.600 129.959,102.820 128.165,102.987 125.678 C 103.154 123.192,103.198 121.065,103.085 120.952 C 102.973 120.839,102.752 122.633,102.595 124.938 M59.823 122.606 C 58.960 124.672,59.074 124.906,60.047 123.062 C 60.493 122.216,60.765 121.432,60.652 121.319 C 60.539 121.206,60.166 121.785,59.823 122.606 M22.417 123.900 C 22.439 124.301,23.962 127.070,23.983 126.749 C 24.011 126.335,22.805 123.600,22.595 123.600 C 22.488 123.600,22.408 123.735,22.417 123.900 M386.700 129.363 C 386.535 132.423,386.428 137.283,386.461 140.163 C 386.514 144.668,386.571 144.142,386.866 136.400 C 387.054 131.450,387.162 126.590,387.104 125.600 C 387.047 124.610,386.865 126.303,386.700 129.363 M73.867 126.867 C 73.281 128.224,72.886 129.420,72.990 129.523 C 73.093 129.626,73.341 129.281,73.541 128.755 C 73.741 128.230,74.199 127.097,74.558 126.239 C 74.917 125.380,75.148 124.614,75.071 124.538 C 74.994 124.461,74.452 125.509,73.867 126.867 M260.800 124.793 C 260.800 125.459,264.141 128.800,264.807 128.800 C 265.088 128.800,264.711 128.391,263.969 127.890 C 263.226 127.390,262.210 126.374,261.710 125.631 C 261.209 124.889,260.800 124.512,260.800 124.793 M7.200 125.284 C 7.200 125.716,8.415 128.400,8.611 128.400 C 8.721 128.400,8.533 127.734,8.193 126.921 C 7.593 125.486,7.200 124.838,7.200 125.284 M176.995 129.738 C 176.838 132.042,176.794 134.169,176.897 134.464 C 177.000 134.759,177.220 132.965,177.387 130.478 C 177.554 127.992,177.598 125.865,177.485 125.752 C 177.373 125.639,177.152 127.433,176.995 129.738 M320.501 128.900 C 317.934 132.068,314.247 136.950,311.816 140.400 C 309.011 144.381,311.391 141.515,316.133 135.200 C 318.693 131.790,321.348 128.325,322.033 127.500 C 322.718 126.675,323.182 126.000,323.064 126.000 C 322.947 126.000,321.794 127.305,320.501 128.900 M57.423 128.206 C 56.560 130.272,56.674 130.506,57.647 128.662 C 58.093 127.816,58.365 127.032,58.252 126.919 C 58.139 126.806,57.766 127.385,57.423 128.206 M300.600 127.077 C 302.859 127.373,302.887 127.477,301.309 129.674 C 300.481 130.826,300.026 131.631,300.297 131.464 C 303.093 129.736,303.418 126.765,300.800 126.866 C 299.472 126.917,299.462 126.928,300.600 127.077 M199.784 131.542 C 201.030 134.040,202.131 136.002,202.232 135.901 C 202.433 135.701,198.540 128.047,197.909 127.400 C 197.694 127.180,198.538 129.044,199.784 131.542 M283.400 127.600 L 280.600 127.859 283.400 127.885 C 284.940 127.899,287.910 127.780,290.000 127.620 L 293.800 127.329 290.000 127.335 C 287.910 127.339,284.940 127.458,283.400 127.600 M272.800 128.400 L 271.400 128.695 272.800 128.712 C 273.570 128.722,275.100 128.590,276.200 128.418 L 278.200 128.107 276.200 128.106 C 275.100 128.106,273.570 128.238,272.800 128.400 M266.466 129.191 C 267.053 129.368,268.133 129.371,268.866 129.197 C 270.000 128.929,269.840 128.881,267.800 128.875 C 265.978 128.870,265.657 128.946,266.466 129.191 M72.400 130.084 C 72.400 130.204,72.128 130.954,71.795 131.751 C 71.462 132.548,71.279 133.200,71.389 133.200 C 71.706 133.200,72.833 130.300,72.605 130.072 C 72.492 129.959,72.400 129.965,72.400 130.084 M25.616 130.505 C 25.592 130.968,31.626 142.908,31.797 142.736 C 31.879 142.654,30.526 139.800,28.789 136.393 C 27.053 132.987,25.625 130.337,25.616 130.505 M55.823 131.806 C 54.960 133.872,55.074 134.106,56.047 132.262 C 56.493 131.416,56.765 130.632,56.652 130.519 C 56.539 130.406,56.166 130.985,55.823 131.806 M156.299 138.600 C 156.412 142.340,156.571 145.475,156.652 145.567 C 156.908 145.855,156.715 137.528,156.397 134.600 C 156.216 132.923,156.176 134.528,156.299 138.600 M298.725 133.300 C 297.104 135.474,295.840 137.436,296.471 136.800 C 297.286 135.979,300.113 132.000,299.882 132.000 C 299.779 132.000,299.259 132.585,298.725 133.300 M10.418 132.451 C 10.380 132.980,11.657 135.676,11.852 135.481 C 11.965 135.368,11.693 134.584,11.247 133.738 C 10.800 132.892,10.427 132.313,10.418 132.451 M141.713 134.800 C 141.708 136.230,141.832 138.750,141.988 140.400 L 142.271 143.400 142.289 140.400 C 142.298 138.750,142.175 136.230,142.014 134.800 L 141.722 132.200 141.713 134.800 M87.464 138.900 C 87.142 145.928,87.201 171.651,87.547 175.200 C 87.686 176.630,87.805 167.765,87.811 155.500 C 87.817 143.235,87.800 133.200,87.773 133.200 C 87.746 133.200,87.607 135.765,87.464 138.900 M54.223 135.406 C 53.360 137.472,53.474 137.706,54.447 135.862 C 54.893 135.016,55.165 134.232,55.052 134.119 C 54.939 134.006,54.566 134.585,54.223 135.406 M101.862 140.464 C 101.542 147.874,101.590 166.879,101.942 171.800 C 102.084 173.780,102.203 166.175,102.207 154.900 C 102.211 143.625,102.194 134.400,102.170 134.400 C 102.145 134.400,102.007 137.129,101.862 140.464 M338.185 153.800 C 338.185 164.140,338.236 168.427,338.300 163.328 C 338.363 158.228,338.363 149.768,338.300 144.528 C 338.237 139.287,338.185 143.460,338.185 153.800 M69.455 137.055 C 69.076 137.849,68.853 138.586,68.959 138.693 C 69.066 138.799,69.436 138.209,69.782 137.382 C 70.598 135.429,70.349 135.180,69.455 137.055 M52.623 139.006 C 51.760 141.072,51.874 141.306,52.847 139.462 C 53.293 138.616,53.565 137.832,53.452 137.719 C 53.339 137.606,52.966 138.185,52.623 139.006 M176.206 144.076 C 176.052 147.004,175.990 150.120,176.067 151.000 C 176.144 151.880,176.357 149.572,176.541 145.870 C 176.724 142.169,176.786 139.053,176.679 138.946 C 176.572 138.839,176.359 141.147,176.206 144.076 M67.855 140.655 C 67.476 141.449,67.253 142.186,67.359 142.293 C 67.466 142.399,67.836 141.809,68.182 140.982 C 68.998 139.029,68.749 138.780,67.855 140.655 M51.023 142.606 C 50.160 144.672,50.274 144.906,51.247 143.062 C 51.693 142.216,51.965 141.432,51.852 141.319 C 51.739 141.206,51.366 141.785,51.023 142.606 M207.021 145.642 C 208.246 148.085,209.319 150.014,209.405 149.929 C 209.587 149.747,205.252 141.200,204.978 141.200 C 204.876 141.200,205.796 143.199,207.021 145.642 M292.104 142.900 C 290.389 145.075,287.323 149.987,288.297 149.000 C 288.877 148.411,292.852 142.400,292.661 142.400 C 292.571 142.400,292.321 142.625,292.104 142.900 M66.255 144.255 C 65.876 145.049,65.653 145.786,65.759 145.893 C 65.866 145.999,66.236 145.409,66.582 144.582 C 67.398 142.629,67.149 142.380,66.255 144.255 M307.919 145.900 C 302.670 153.629,298.744 159.732,299.491 159.000 C 300.116 158.388,310.437 142.800,310.217 142.800 C 310.111 142.800,309.077 144.195,307.919 145.900 M352.568 152.200 C 352.568 156.600,352.626 158.455,352.698 156.321 C 352.770 154.188,352.770 150.588,352.699 148.321 C 352.627 146.055,352.568 147.800,352.568 152.200 M35.615 150.300 C 37.417 153.674,38.844 155.916,38.350 154.600 C 37.990 153.640,33.912 146.400,33.731 146.400 C 33.621 146.400,34.469 148.155,35.615 150.300 M48.623 147.806 C 47.760 149.872,47.874 150.106,48.847 148.262 C 49.293 147.416,49.565 146.632,49.452 146.519 C 49.339 146.406,48.966 146.985,48.623 147.806 M64.655 147.855 C 64.276 148.649,64.053 149.386,64.159 149.493 C 64.266 149.599,64.636 149.009,64.982 148.182 C 65.798 146.229,65.549 145.980,64.655 147.855 M190.657 147.900 C 190.520 148.725,190.439 152.460,190.476 156.200 L 190.544 163.000 190.821 155.600 C 191.199 145.509,191.064 146.408,192.020 147.600 L 192.822 148.600 192.347 147.500 C 191.681 145.958,190.949 146.131,190.657 147.900 M142.577 160.200 C 142.577 166.580,142.632 169.134,142.699 165.876 C 142.767 162.617,142.766 157.397,142.699 154.276 C 142.631 151.154,142.576 153.820,142.577 160.200 M371.746 152.600 C 371.747 154.800,371.814 155.649,371.895 154.487 C 371.976 153.324,371.976 151.524,371.893 150.487 C 371.811 149.449,371.745 150.400,371.746 152.600 M286.322 151.700 C 284.718 154.119,283.894 155.600,284.150 155.600 C 284.295 155.600,286.443 152.320,287.752 150.100 C 288.573 148.708,287.535 149.870,286.322 151.700 M19.200 150.550 C 19.200 150.841,21.271 154.400,21.441 154.400 C 21.536 154.400,21.157 153.500,20.600 152.400 C 19.731 150.686,19.200 149.983,19.200 150.550 M193.600 150.550 C 193.600 150.841,195.671 154.400,195.841 154.400 C 195.936 154.400,195.557 153.500,195.000 152.400 C 194.131 150.686,193.600 149.983,193.600 150.550 M46.223 153.006 C 45.360 155.072,45.474 155.306,46.447 153.462 C 46.893 152.616,47.165 151.832,47.052 151.719 C 46.939 151.606,46.566 152.185,46.223 153.006 M62.255 153.055 C 61.876 153.849,61.653 154.586,61.759 154.693 C 61.866 154.799,62.236 154.209,62.582 153.382 C 63.398 151.429,63.149 151.180,62.255 153.055 M156.971 163.200 C 156.971 168.150,157.028 170.175,157.099 167.700 C 157.169 165.225,157.169 161.175,157.099 158.700 C 157.028 156.225,156.971 158.250,156.971 163.200 M21.600 154.963 C 21.600 155.297,27.277 165.016,27.697 165.400 C 27.937 165.620,27.777 165.170,27.340 164.400 C 21.884 154.774,21.600 154.308,21.600 154.963 M40.036 158.300 C 40.966 160.005,41.784 161.471,41.854 161.557 C 42.057 161.808,43.200 160.742,43.200 160.302 C 43.200 160.082,42.926 160.129,42.590 160.408 C 41.863 161.012,42.062 161.223,40.224 157.900 C 39.403 156.415,38.644 155.200,38.538 155.200 C 38.431 155.200,39.105 156.595,40.036 158.300 M213.784 158.742 C 214.810 160.800,215.732 162.402,215.831 162.302 C 216.028 162.106,212.936 156.056,212.303 155.400 C 212.091 155.180,212.758 156.684,213.784 158.742 M282.653 157.591 C 281.653 159.102,281.215 160.196,281.936 159.380 C 282.492 158.752,284.079 156.000,283.886 156.000 C 283.787 156.000,283.232 156.716,282.653 157.591 M196.870 156.700 C 197.572 158.247,199.655 162.000,199.811 162.000 C 199.920 162.000,199.376 160.740,198.600 159.200 C 197.824 157.660,197.087 156.400,196.962 156.400 C 196.836 156.400,196.795 156.535,196.870 156.700 M59.459 159.059 C 58.856 160.289,58.442 161.375,58.540 161.473 C 58.638 161.571,59.189 160.622,59.765 159.365 C 61.125 156.394,60.884 156.153,59.459 159.059 M175.554 171.100 C 175.463 177.645,175.490 187.860,175.613 193.800 C 175.789 202.305,175.854 199.776,175.918 181.900 C 175.963 169.415,175.937 159.200,175.859 159.200 C 175.782 159.200,175.645 164.555,175.554 171.100 M297.917 161.100 C 297.373 161.925,296.707 163.050,296.437 163.600 L 295.946 164.600 296.753 163.600 C 297.677 162.455,299.337 159.600,299.079 159.600 C 298.984 159.600,298.461 160.275,297.917 161.100 M386.452 170.833 C 386.480 177.085,386.634 184.900,386.795 188.200 C 386.955 191.500,386.998 186.460,386.890 177.000 C 386.782 167.540,386.628 159.725,386.547 159.633 C 386.466 159.542,386.423 164.582,386.452 170.833 M280.708 160.900 C 279.833 162.249,279.048 163.856,279.487 163.400 C 280.048 162.817,281.698 160.000,281.479 160.000 C 281.376 160.000,281.029 160.405,280.708 160.900 M200.000 162.550 C 200.000 162.841,202.071 166.400,202.241 166.400 C 202.336 166.400,201.957 165.500,201.400 164.400 C 200.531 162.686,200.000 161.983,200.000 162.550 M217.421 165.641 C 218.208 167.204,218.927 168.407,219.019 168.315 C 219.205 168.129,216.451 162.800,216.168 162.800 C 216.070 162.800,216.634 164.078,217.421 165.641 M278.214 165.035 C 277.841 165.604,277.627 166.161,277.739 166.272 C 277.850 166.383,278.229 165.918,278.581 165.237 C 279.359 163.733,279.144 163.615,278.214 165.035 M295.122 165.700 C 293.511 168.242,292.709 169.815,293.541 168.800 C 294.476 167.659,296.142 164.800,295.872 164.800 C 295.773 164.800,295.435 165.205,295.122 165.700 M28.786 167.400 C 29.256 168.280,30.006 169.450,30.454 170.000 C 31.230 170.953,31.228 170.925,30.414 169.400 C 29.944 168.520,29.194 167.350,28.746 166.800 C 27.970 165.847,27.972 165.875,28.786 167.400 M276.614 167.835 C 276.241 168.404,276.027 168.961,276.139 169.072 C 276.250 169.183,276.629 168.718,276.981 168.037 C 277.759 166.533,277.544 166.415,276.614 167.835 M203.800 169.600 C 204.141 170.260,204.511 170.800,204.621 170.800 C 204.731 170.800,204.541 170.260,204.200 169.600 C 203.859 168.940,203.489 168.400,203.379 168.400 C 203.269 168.400,203.459 168.940,203.800 169.600 M275.130 170.500 C 274.125 172.110,271.880 176.611,272.287 176.200 C 272.809 175.674,276.109 169.600,275.874 169.600 C 275.774 169.600,275.439 170.005,275.130 170.500 M290.788 172.900 C 288.830 176.232,288.460 177.008,289.481 175.634 C 290.430 174.359,292.896 170.000,292.669 170.000 C 292.571 170.000,291.725 171.305,290.788 172.900 M221.020 172.440 C 221.589 173.562,222.134 174.399,222.233 174.301 C 222.423 174.110,220.451 170.400,220.159 170.400 C 220.064 170.400,220.452 171.318,221.020 172.440 M204.806 171.288 C 204.798 171.679,206.377 174.503,206.882 175.000 C 207.105 175.220,206.915 174.680,206.459 173.800 C 205.469 171.888,204.815 170.893,204.806 171.288 M372.047 180.233 C 372.073 185.055,372.228 191.430,372.392 194.400 C 372.565 197.549,372.606 193.964,372.491 185.800 C 372.382 178.100,372.227 171.725,372.147 171.633 C 372.066 171.542,372.021 175.412,372.047 180.233 M32.254 172.900 C 32.419 173.175,33.195 174.390,33.977 175.600 L 35.400 177.800 35.613 188.000 L 35.827 198.200 35.913 188.095 L 36.000 177.990 34.141 175.195 C 33.119 173.658,32.208 172.400,32.118 172.400 C 32.027 172.400,32.088 172.625,32.254 172.900 M51.427 175.147 C 50.014 177.936,50.145 178.289,51.608 175.634 C 52.265 174.443,52.724 173.390,52.628 173.295 C 52.532 173.199,51.992 174.032,51.427 175.147 M223.420 176.840 C 223.989 177.962,224.534 178.799,224.633 178.701 C 224.823 178.510,222.851 174.800,222.559 174.800 C 222.464 174.800,222.852 175.718,223.420 176.840 M352.850 182.033 C 352.878 186.085,353.036 192.010,353.202 195.200 C 353.391 198.838,353.429 196.154,353.303 188.000 C 353.193 180.850,353.035 174.925,352.952 174.833 C 352.868 174.742,352.823 177.982,352.850 182.033 M141.836 177.939 C 141.675 179.555,141.631 180.964,141.737 181.070 C 142.001 181.334,142.531 176.190,142.307 175.530 C 142.209 175.239,141.997 176.322,141.836 177.939 M207.250 175.809 C 207.577 176.700,210.869 182.400,211.056 182.400 C 211.301 182.400,208.038 176.358,207.492 175.800 C 207.231 175.534,207.150 175.536,207.250 175.809 M156.280 179.158 C 156.117 180.786,156.062 182.196,156.159 182.292 C 156.423 182.557,156.896 178.284,156.725 177.171 C 156.643 176.637,156.443 177.531,156.280 179.158 M287.786 178.100 L 287.152 179.400 287.967 178.400 C 288.752 177.437,289.008 176.800,288.610 176.800 C 288.506 176.800,288.135 177.385,287.786 178.100 M102.493 178.800 C 102.495 180.565,103.091 183.188,103.130 181.600 C 103.143 181.050,103.005 179.880,102.823 179.000 L 102.492 177.400 102.493 178.800 M267.779 184.443 C 266.114 187.766,264.815 190.548,264.891 190.625 C 264.968 190.701,266.418 187.982,268.113 184.582 C 269.809 181.182,271.109 178.400,271.001 178.400 C 270.893 178.400,269.443 181.119,267.779 184.443 M88.097 180.600 C 88.096 181.480,88.232 182.740,88.400 183.400 C 88.840 185.130,88.855 183.243,88.420 180.800 L 88.100 179.000 88.097 180.600 M286.186 180.900 L 285.552 182.200 286.367 181.200 C 287.152 180.237,287.408 179.600,287.010 179.600 C 286.906 179.600,286.535 180.185,286.186 180.900 M140.978 183.778 C 140.827 184.581,140.794 185.327,140.904 185.437 C 141.014 185.547,141.227 184.981,141.378 184.178 C 141.528 183.375,141.562 182.628,141.452 182.518 C 141.342 182.408,141.128 182.975,140.978 183.778 M284.240 184.398 C 283.640 185.499,283.236 186.400,283.341 186.400 C 283.608 186.400,285.643 182.710,285.471 182.537 C 285.393 182.460,284.839 183.297,284.240 184.398 M211.209 183.100 C 211.214 183.265,211.585 183.850,212.033 184.400 L 212.848 185.400 212.214 184.100 C 211.611 182.865,211.189 182.445,211.209 183.100 M103.280 183.800 C 103.280 184.240,103.424 185.050,103.600 185.600 C 103.854 186.392,103.920 186.433,103.920 185.800 C 103.920 185.360,103.776 184.550,103.600 184.000 C 103.346 183.208,103.280 183.167,103.280 183.800 M155.454 185.154 C 155.300 186.118,155.258 186.991,155.361 187.094 C 155.630 187.363,156.115 184.545,155.907 183.922 C 155.812 183.636,155.608 184.190,155.454 185.154 M88.875 186.200 C 88.865 186.860,89.011 187.760,89.200 188.200 L 89.544 189.000 89.525 188.200 C 89.514 187.760,89.368 186.860,89.200 186.200 L 88.895 185.000 88.875 186.200 M338.525 190.800 C 338.516 193.990,338.633 198.760,338.784 201.400 L 339.060 206.200 339.078 201.600 C 339.088 199.070,338.972 194.300,338.819 191.000 L 338.542 185.000 338.525 190.800 M212.809 185.900 C 212.814 186.065,213.185 186.650,213.633 187.200 L 214.448 188.200 213.814 186.900 C 213.211 185.665,212.789 185.245,212.809 185.900 M140.273 186.953 C 140.123 187.345,140.011 187.966,140.025 188.333 C 140.042 188.775,140.181 188.674,140.437 188.034 C 140.649 187.503,140.761 186.882,140.685 186.654 C 140.609 186.427,140.424 186.561,140.273 186.953 M104.056 187.200 C 104.056 187.530,104.211 188.160,104.400 188.600 C 104.617 189.104,104.744 189.178,104.744 188.800 C 104.744 188.470,104.589 187.840,104.400 187.400 C 104.183 186.896,104.056 186.822,104.056 187.200 M154.650 189.250 C 154.317 190.917,154.640 191.240,155.000 189.600 C 155.152 188.909,155.193 188.259,155.091 188.158 C 154.989 188.056,154.791 188.547,154.650 189.250 M214.924 189.400 C 215.262 190.060,215.838 190.960,216.204 191.400 C 216.570 191.840,216.465 191.480,215.970 190.600 C 214.880 188.658,214.064 187.722,214.924 189.400 M281.400 189.600 C 281.059 190.260,280.869 190.800,280.979 190.800 C 281.089 190.800,281.459 190.260,281.800 189.600 C 282.141 188.940,282.331 188.400,282.221 188.400 C 282.111 188.400,281.741 188.940,281.400 189.600 M89.656 190.200 C 89.656 190.640,89.811 191.360,90.000 191.800 L 90.344 192.600 90.344 191.800 C 90.344 191.360,90.189 190.640,90.000 190.200 L 89.656 189.400 89.656 190.200 M153.829 192.229 C 153.681 192.815,153.651 193.384,153.761 193.494 C 153.871 193.604,154.081 193.215,154.229 192.629 C 154.376 192.042,154.406 191.473,154.296 191.363 C 154.186 191.253,153.976 191.642,153.829 192.229 M105.607 191.720 C 105.579 192.970,109.167 198.051,110.929 199.256 C 111.863 199.894,111.647 199.550,110.117 197.962 C 108.971 196.773,107.489 194.810,106.824 193.600 C 106.159 192.390,105.611 191.544,105.607 191.720 M216.800 192.529 C 216.800 192.894,218.845 196.000,219.086 196.000 C 219.279 196.000,217.692 193.248,217.136 192.620 C 216.951 192.411,216.800 192.370,216.800 192.529 M263.023 194.206 C 262.160 196.272,262.274 196.506,263.247 194.662 C 263.693 193.816,263.965 193.032,263.852 192.919 C 263.739 192.806,263.366 193.385,263.023 194.206 M137.400 194.400 C 137.059 195.060,136.869 195.600,136.979 195.600 C 137.089 195.600,137.459 195.060,137.800 194.400 C 138.141 193.740,138.331 193.200,138.221 193.200 C 138.111 193.200,137.741 193.740,137.400 194.400 M307.907 195.890 C 308.626 195.979,309.706 195.977,310.307 195.886 C 310.908 195.795,310.320 195.722,309.000 195.724 C 307.680 195.726,307.188 195.801,307.907 195.890 M134.000 198.499 C 131.418 200.953,131.394 201.162,133.914 199.270 C 135.009 198.448,137.152 195.967,136.727 196.014 C 136.657 196.022,135.430 197.140,134.000 198.499 M276.557 198.902 C 274.414 203.234,274.374 203.200,281.587 203.200 C 284.894 203.200,287.594 203.335,287.586 203.500 C 287.578 203.665,287.314 204.250,287.000 204.800 C 286.686 205.350,286.435 206.070,286.444 206.400 C 286.463 207.125,287.928 204.053,287.970 203.200 C 287.996 202.692,287.084 202.600,282.034 202.600 C 274.913 202.600,275.144 202.757,276.945 199.145 C 277.739 197.555,278.309 196.176,278.214 196.080 C 278.118 195.985,277.373 197.254,276.557 198.902 M220.002 197.800 C 220.463 198.680,221.206 199.850,221.653 200.400 C 222.325 201.226,222.304 201.115,221.534 199.766 C 220.128 197.306,218.952 195.797,220.002 197.800 M261.423 197.806 C 260.560 199.872,260.674 200.106,261.647 198.262 C 262.093 197.416,262.365 196.632,262.252 196.519 C 262.139 196.406,261.766 196.985,261.423 197.806 M244.114 204.600 C 244.118 209.177,244.255 212.115,244.435 211.467 C 244.608 210.843,244.604 207.243,244.428 203.467 L 244.107 196.600 244.114 204.600 M302.154 197.691 C 300.837 198.707,300.170 199.456,299.561 200.600 C 299.327 201.040,299.607 200.822,300.184 200.116 C 300.761 199.410,301.810 198.377,302.516 197.821 C 303.222 197.264,303.689 196.807,303.554 196.804 C 303.419 196.802,302.789 197.201,302.154 197.691 M316.436 198.600 C 317.005 199.260,317.884 200.401,318.389 201.136 C 319.115 202.195,319.514 202.433,320.303 202.282 C 321.748 202.006,323.788 202.673,325.242 203.896 C 326.356 204.834,326.442 204.856,325.958 204.081 C 325.202 202.870,322.931 201.867,320.947 201.867 C 319.595 201.867,319.182 201.679,318.679 200.833 C 318.341 200.265,317.465 199.260,316.732 198.600 L 315.400 197.400 316.436 198.600 M92.800 199.753 C 92.800 200.182,93.990 202.400,94.221 202.400 C 94.331 202.400,94.123 201.815,93.759 201.100 C 93.017 199.640,92.800 199.336,92.800 199.753 M112.400 200.196 C 112.400 200.470,114.849 201.684,115.032 201.501 C 115.119 201.414,114.562 201.044,113.795 200.678 C 113.028 200.312,112.400 200.095,112.400 200.196 M149.899 202.032 C 149.295 203.114,148.883 204.000,148.983 204.000 C 149.257 204.000,151.321 200.388,151.147 200.214 C 151.065 200.132,150.503 200.950,149.899 202.032 M387.298 206.200 C 387.282 209.500,387.405 211.750,387.571 211.200 C 387.737 210.650,387.750 207.950,387.600 205.200 L 387.327 200.200 387.298 206.200 M116.200 202.000 C 116.640 202.189,117.270 202.344,117.600 202.344 C 117.978 202.344,117.904 202.217,117.400 202.000 C 116.960 201.811,116.330 201.656,116.000 201.656 C 115.622 201.656,115.696 201.783,116.200 202.000 M127.800 202.000 C 127.296 202.217,127.222 202.344,127.600 202.344 C 127.930 202.344,128.560 202.189,129.000 202.000 C 129.504 201.783,129.578 201.656,129.200 201.656 C 128.870 201.656,128.240 201.811,127.800 202.000 M298.616 201.973 C 298.471 202.208,297.709 202.400,296.923 202.400 C 294.885 202.400,292.671 203.144,291.344 204.275 C 290.239 205.215,290.266 205.212,292.127 204.171 C 293.420 203.447,294.790 203.050,296.290 202.963 C 298.384 202.842,299.647 202.313,299.113 201.780 C 298.985 201.652,298.761 201.739,298.616 201.973 M50.554 206.800 C 50.554 209.550,50.618 210.675,50.696 209.300 C 50.774 207.925,50.774 205.675,50.696 204.300 C 50.618 202.925,50.554 204.050,50.554 206.800 M120.900 202.694 C 121.945 202.776,123.655 202.776,124.700 202.694 C 125.745 202.612,124.890 202.544,122.800 202.544 C 120.710 202.544,119.855 202.612,120.900 202.694 M94.844 203.700 C 96.812 207.453,105.631 215.302,106.690 214.244 C 106.794 214.139,105.962 213.589,104.841 213.021 C 102.348 211.757,97.634 207.382,95.925 204.745 C 94.608 202.711,94.035 202.158,94.844 203.700 M223.395 203.200 C 224.061 204.480,227.330 209.233,227.703 209.464 C 227.919 209.597,227.150 208.288,225.994 206.553 C 223.961 203.504,222.721 201.905,223.395 203.200 M147.427 205.800 C 146.840 206.570,146.503 207.198,146.680 207.195 C 146.856 207.192,147.407 206.562,147.904 205.795 C 149.068 203.997,148.800 204.000,147.427 205.800 M372.838 208.400 C 372.824 210.050,372.963 211.638,373.148 211.929 C 373.338 212.229,373.408 211.098,373.311 209.329 C 373.079 205.137,372.869 204.724,372.838 208.400 M190.534 208.800 C 190.534 210.450,190.605 211.125,190.691 210.300 C 190.778 209.475,190.778 208.125,190.691 207.300 C 190.605 206.475,190.534 207.150,190.534 208.800 M257.849 206.615 C 257.712 206.973,257.615 207.566,257.634 207.933 C 257.653 208.300,257.827 208.069,258.021 207.420 C 258.398 206.158,258.265 205.533,257.849 206.615 M353.728 208.800 C 353.728 210.230,353.801 210.815,353.889 210.100 C 353.978 209.385,353.978 208.215,353.889 207.500 C 353.801 206.785,353.728 207.370,353.728 208.800 M36.006 209.433 C 36.009 210.735,36.171 212.050,36.365 212.356 C 36.577 212.691,36.633 211.816,36.506 210.156 C 36.240 206.689,35.998 206.339,36.006 209.433 M286.134 210.000 C 286.134 211.650,286.205 212.325,286.291 211.500 C 286.378 210.675,286.378 209.325,286.291 208.500 C 286.205 207.675,286.134 208.350,286.134 210.000 M144.007 209.599 C 142.801 210.679,140.736 212.201,139.416 212.981 C 138.097 213.762,137.211 214.400,137.447 214.400 C 138.202 214.400,142.905 211.169,144.783 209.360 C 147.227 207.006,146.732 207.158,144.007 209.599 M327.200 208.037 C 327.200 208.237,327.365 208.400,327.567 208.400 C 327.769 208.400,328.249 208.521,328.633 208.668 C 329.072 208.836,329.235 208.780,329.072 208.516 C 328.730 207.963,327.200 207.572,327.200 208.037 M330.245 209.612 C 330.710 210.155,331.290 210.960,331.533 211.400 C 331.837 211.950,331.975 212.012,331.975 211.600 C 331.974 210.905,331.337 210.048,330.200 209.212 C 329.457 208.666,329.460 208.695,330.245 209.612 M228.851 211.300 C 232.895 217.109,236.368 218.878,240.020 216.990 C 241.641 216.152,241.507 215.913,239.813 216.620 C 236.393 218.049,233.381 216.821,230.380 212.773 C 228.312 209.983,227.164 208.878,228.851 211.300 M176.000 211.310 C 176.000 211.883,176.187 212.468,176.416 212.610 C 176.689 212.779,176.738 212.477,176.560 211.734 C 176.192 210.201,176.000 210.056,176.000 211.310 M339.229 211.200 C 339.185 212.870,342.091 216.798,343.372 216.800 C 343.577 216.800,342.993 216.158,342.076 215.372 C 340.924 214.386,340.230 213.365,339.832 212.072 C 339.426 210.753,339.248 210.495,339.229 211.200 M257.616 211.546 C 257.590 212.437,259.193 215.004,260.130 215.573 C 260.844 216.005,260.806 215.893,259.922 214.950 C 259.329 214.318,258.571 213.170,258.238 212.400 C 257.904 211.630,257.624 211.245,257.616 211.546 M352.600 213.489 C 352.160 214.306,351.188 215.386,350.441 215.888 C 349.693 216.389,349.319 216.800,349.609 216.800 C 350.318 216.800,353.600 213.340,353.600 212.593 C 353.600 211.736,353.490 211.834,352.600 213.489 M288.828 213.076 C 288.813 213.558,288.980 214.064,289.200 214.200 C 289.673 214.492,289.673 214.101,289.200 213.000 C 288.869 212.229,288.855 212.231,288.828 213.076 M386.610 213.169 C 386.476 213.592,385.653 214.582,384.782 215.369 C 383.911 216.156,383.378 216.800,383.599 216.800 C 384.231 216.800,387.200 213.667,387.200 213.000 C 387.200 212.165,386.901 212.251,386.610 213.169 M242.704 214.444 C 242.101 215.300,241.687 216.000,241.783 216.000 C 242.069 216.000,244.126 213.192,243.956 213.033 C 243.870 212.954,243.307 213.588,242.704 214.444 M373.600 213.048 C 373.600 213.258,374.153 214.053,374.829 214.815 L 376.058 216.200 374.945 214.600 C 374.333 213.720,373.780 212.925,373.716 212.833 C 373.652 212.742,373.600 212.838,373.600 213.048 M37.587 214.340 C 40.198 218.126,45.395 218.575,48.461 215.279 L 49.800 213.840 48.311 215.098 C 44.987 217.906,41.153 217.738,38.232 214.655 C 36.843 213.189,36.769 213.153,37.587 214.340 M176.804 213.453 C 176.796 214.276,179.920 216.744,181.610 217.250 C 183.970 217.957,186.563 217.216,188.400 215.310 L 189.800 213.857 188.305 215.111 C 184.913 217.959,180.447 217.616,177.840 214.308 C 177.273 213.589,176.807 213.204,176.804 213.453 M286.626 214.400 C 287.317 217.232,288.336 217.002,275.200 216.979 C 268.710 216.967,264.480 217.082,265.800 217.235 C 269.405 217.653,287.519 217.655,287.776 217.238 C 287.899 217.039,287.636 216.094,287.191 215.138 C 286.746 214.182,286.492 213.850,286.626 214.400 M108.600 215.171 C 109.480 215.594,110.560 215.941,111.000 215.942 C 111.487 215.943,111.252 215.742,110.400 215.429 C 107.922 214.518,106.953 214.379,108.600 215.171 M290.887 216.219 C 291.704 217.067,292.456 217.677,292.557 217.576 C 292.658 217.475,291.989 216.782,291.071 216.035 L 289.400 214.679 290.887 216.219 M133.600 215.600 C 133.067 215.945,133.067 215.988,133.600 215.988 C 133.930 215.988,134.470 215.813,134.800 215.600 C 135.333 215.255,135.333 215.212,134.800 215.212 C 134.470 215.212,133.930 215.387,133.600 215.600 M112.600 216.400 C 113.040 216.589,113.850 216.738,114.400 216.732 L 115.400 216.720 114.400 216.400 C 113.850 216.224,113.040 216.074,112.600 216.068 L 111.800 216.056 112.600 216.400 M130.400 216.400 L 129.400 216.720 130.400 216.754 C 130.950 216.773,131.670 216.613,132.000 216.400 C 132.764 215.906,131.942 215.906,130.400 216.400 M117.800 217.265 C 119.860 217.637,125.340 217.637,127.400 217.265 C 128.360 217.091,126.441 216.975,122.600 216.975 C 118.759 216.975,116.840 217.091,117.800 217.265 M344.696 217.265 C 345.651 217.643,347.693 217.656,348.273 217.287 C 348.533 217.122,347.676 216.987,346.369 216.987 C 345.061 216.987,344.309 217.112,344.696 217.265 M378.531 217.290 C 379.127 217.668,381.160 217.638,382.193 217.234 C 382.691 217.040,382.070 216.937,380.524 216.958 C 379.170 216.976,378.273 217.126,378.531 217.290 M293.462 218.100 C 293.564 218.265,301.636 218.400,311.400 218.400 C 321.164 218.400,329.236 218.265,329.338 218.100 C 329.440 217.935,321.368 217.800,311.400 217.800 C 301.432 217.800,293.360 217.935,293.462 218.100 " stroke="none" fill="#34749d" fill-rule="evenodd"></path><path id="path4" d="M8.600 112.590 C 7.720 113.132,7.141 113.581,7.314 113.588 C 7.487 113.594,8.076 113.306,8.624 112.947 C 9.172 112.589,10.201 112.157,10.910 111.988 C 12.017 111.725,12.058 111.676,11.200 111.643 C 10.650 111.622,9.480 112.048,8.600 112.590 M65.700 112.396 C 64.985 112.832,64.400 113.285,64.400 113.403 C 64.400 113.522,64.855 113.321,65.410 112.957 C 65.966 112.593,67.001 112.157,67.710 111.988 C 68.818 111.725,68.859 111.676,68.000 111.642 C 67.450 111.621,66.415 111.960,65.700 112.396 M93.045 111.928 C 92.933 112.108,93.373 112.177,94.021 112.082 C 94.670 111.987,95.200 111.840,95.200 111.755 C 95.200 111.450,93.243 111.607,93.045 111.928 M96.400 111.756 C 96.400 111.842,97.017 111.985,97.772 112.073 C 98.527 112.161,99.056 112.090,98.948 111.916 C 98.755 111.603,96.400 111.455,96.400 111.756 M143.978 112.741 C 143.000 113.368,141.870 114.493,141.467 115.241 L 140.733 116.600 141.558 115.600 C 142.011 115.050,142.386 114.473,142.391 114.317 C 142.450 112.427,149.457 111.306,151.900 112.796 C 152.615 113.232,153.200 113.498,153.200 113.388 C 153.200 111.485,146.652 111.025,143.978 112.741 M187.074 111.985 C 189.044 112.454,190.750 113.712,192.029 115.640 C 192.671 116.608,193.197 117.261,193.198 117.091 C 193.208 115.344,188.738 111.557,186.765 111.641 C 185.966 111.675,186.019 111.734,187.074 111.985 M345.107 111.890 C 345.826 111.979,346.906 111.977,347.507 111.886 C 348.108 111.795,347.520 111.722,346.200 111.724 C 344.880 111.726,344.388 111.801,345.107 111.890 M376.163 112.589 C 374.213 113.758,372.280 116.486,372.521 117.728 C 372.689 118.590,372.692 118.590,372.746 117.691 C 373.020 113.120,379.787 110.442,384.122 113.191 C 385.155 113.846,386.000 114.292,386.000 114.182 C 386.000 112.074,378.932 110.929,376.163 112.589 M15.610 112.126 C 16.209 112.774,18.895 114.397,18.418 113.822 C 18.110 113.451,17.305 112.866,16.629 112.523 C 15.953 112.179,15.495 112.001,15.610 112.126 M232.100 112.846 C 231.385 113.304,230.800 113.839,230.800 114.035 C 230.800 114.232,231.115 114.127,231.500 113.804 C 231.885 113.480,232.560 112.947,233.000 112.620 C 234.183 111.740,233.597 111.887,232.100 112.846 M240.400 112.758 C 240.950 113.211,241.520 113.586,241.667 113.591 C 241.814 113.596,242.354 114.275,242.867 115.100 L 243.800 116.600 244.004 150.600 L 244.209 184.600 244.304 150.778 L 244.400 116.957 243.259 115.178 C 242.632 114.200,241.507 113.070,240.759 112.667 L 239.400 111.933 240.400 112.758 M298.700 112.296 C 300.075 112.374,302.325 112.374,303.700 112.296 C 305.075 112.218,303.950 112.154,301.200 112.154 C 298.450 112.154,297.325 112.218,298.700 112.296 M73.200 112.511 C 73.200 112.587,73.785 113.078,74.500 113.601 C 75.304 114.190,75.584 114.287,75.233 113.855 C 74.700 113.199,73.200 112.207,73.200 112.511 M90.770 113.500 L 89.800 114.600 91.000 113.600 C 91.660 113.050,92.275 112.555,92.367 112.500 C 92.458 112.445,92.355 112.400,92.136 112.400 C 91.918 112.400,91.303 112.895,90.770 113.500 M101.141 113.904 C 101.944 114.731,102.678 115.358,102.773 115.298 C 102.999 115.154,100.328 112.400,99.963 112.400 C 99.809 112.400,100.339 113.077,101.141 113.904 M283.500 112.697 C 285.095 112.773,287.705 112.773,289.300 112.697 C 290.895 112.621,289.590 112.559,286.400 112.559 C 283.210 112.559,281.905 112.621,283.500 112.697 M309.500 112.695 C 310.655 112.776,312.545 112.776,313.700 112.695 C 314.855 112.614,313.910 112.548,311.600 112.548 C 309.290 112.548,308.345 112.614,309.500 112.695 M277.900 113.082 C 278.395 113.178,279.205 113.178,279.700 113.082 C 280.195 112.987,279.790 112.909,278.800 112.909 C 277.810 112.909,277.405 112.987,277.900 113.082 M340.231 114.472 C 339.444 115.392,338.801 116.427,338.802 116.772 C 338.804 117.117,339.085 116.860,339.428 116.200 C 339.770 115.540,340.523 114.505,341.100 113.900 C 341.677 113.295,342.040 112.800,341.906 112.800 C 341.772 112.800,341.018 113.552,340.231 114.472 M351.625 114.231 C 352.381 115.128,353.081 115.797,353.180 115.717 C 353.279 115.638,352.660 114.904,351.805 114.087 L 350.250 112.600 351.625 114.231 M272.291 113.489 C 273.001 113.577,274.261 113.579,275.091 113.492 C 275.921 113.405,275.340 113.333,273.800 113.331 C 272.260 113.329,271.581 113.400,272.291 113.489 M264.700 114.629 C 264.095 114.957,263.600 115.316,263.600 115.427 C 263.600 115.538,264.005 115.405,264.500 115.132 C 264.995 114.860,266.210 114.517,267.200 114.372 L 269.000 114.107 267.400 114.069 C 266.520 114.049,265.305 114.301,264.700 114.629 M322.997 115.601 C 324.893 117.818,324.920 117.842,324.486 117.000 C 324.259 116.560,323.562 115.751,322.937 115.201 L 321.800 114.203 322.997 115.601 M88.972 115.787 C 88.616 116.330,88.387 116.936,88.462 117.134 C 88.538 117.332,88.892 116.888,89.249 116.147 C 90.014 114.562,89.884 114.394,88.972 115.787 M229.359 116.237 C 229.028 117.028,228.813 117.840,228.881 118.042 C 228.948 118.244,229.295 117.597,229.652 116.605 C 230.425 114.456,230.214 114.191,229.359 116.237 M261.629 117.091 C 260.953 117.911,260.400 118.761,260.400 118.980 C 260.400 119.199,260.698 118.933,261.062 118.389 C 261.427 117.845,262.088 116.995,262.532 116.500 C 262.976 116.005,263.231 115.600,263.099 115.600 C 262.967 115.600,262.305 116.271,261.629 117.091 M103.152 117.287 C 103.337 118.398,103.393 118.455,103.519 117.654 C 103.601 117.133,103.503 116.543,103.301 116.341 C 103.079 116.119,103.021 116.493,103.152 117.287 M353.599 123.319 L 353.798 130.200 353.909 123.630 C 353.970 120.017,353.881 116.920,353.710 116.749 C 353.540 116.578,353.490 119.534,353.599 123.319 M76.928 119.200 C 76.928 120.630,77.001 121.215,77.089 120.500 C 77.178 119.785,77.178 118.615,77.089 117.900 C 77.001 117.185,76.928 117.770,76.928 119.200 M140.554 121.600 C 140.554 124.350,140.618 125.475,140.696 124.100 C 140.774 122.725,140.774 120.475,140.696 119.100 C 140.618 117.725,140.554 118.850,140.554 121.600 M4.901 119.400 C 4.905 120.280,4.987 120.593,5.083 120.095 C 5.179 119.598,5.175 118.878,5.075 118.495 C 4.975 118.113,4.896 118.520,4.901 119.400 M21.007 119.479 C 21.607 120.914,22.000 121.562,22.000 121.116 C 22.000 120.684,20.785 118.000,20.589 118.000 C 20.479 118.000,20.667 118.666,21.007 119.479 M88.093 119.200 C 88.093 119.970,88.175 120.285,88.276 119.900 C 88.376 119.515,88.376 118.885,88.276 118.500 C 88.175 118.115,88.093 118.430,88.093 119.200 M177.331 121.000 C 177.333 122.540,177.405 123.121,177.492 122.291 C 177.579 121.461,177.577 120.201,177.489 119.491 C 177.400 118.781,177.329 119.460,177.331 121.000 M387.714 120.200 C 387.717 121.300,387.795 121.703,387.887 121.095 C 387.979 120.486,387.977 119.586,387.882 119.095 C 387.787 118.603,387.711 119.100,387.714 120.200 M228.495 151.124 C 228.426 174.649,228.278 183.572,227.960 183.375 C 227.710 183.221,227.754 183.514,228.060 184.052 C 228.670 185.122,228.907 167.081,228.700 135.330 C 228.640 126.128,228.548 133.236,228.495 151.124 M372.109 120.400 C 372.109 121.390,372.187 121.795,372.282 121.300 C 372.378 120.805,372.378 119.995,372.282 119.500 C 372.187 119.005,372.109 119.410,372.109 120.400 M194.800 120.800 C 195.249 121.680,195.706 122.400,195.816 122.400 C 195.926 122.400,195.649 121.680,195.200 120.800 C 194.751 119.920,194.294 119.200,194.184 119.200 C 194.074 119.200,194.351 119.920,194.800 120.800 M338.158 124.600 C 338.158 127.680,338.221 128.887,338.297 127.282 C 338.373 125.678,338.373 123.158,338.296 121.682 C 338.219 120.207,338.157 121.520,338.158 124.600 M325.301 121.000 C 325.305 121.880,325.387 122.193,325.483 121.695 C 325.579 121.198,325.575 120.478,325.475 120.095 C 325.375 119.713,325.296 120.120,325.301 121.000 M103.342 123.800 C 103.341 125.780,103.408 126.640,103.492 125.712 C 103.576 124.784,103.577 123.164,103.495 122.112 C 103.412 121.060,103.343 121.820,103.342 123.800 M156.150 124.600 C 156.151 127.020,156.216 127.958,156.296 126.685 C 156.376 125.412,156.375 123.432,156.294 122.285 C 156.214 121.138,156.149 122.180,156.150 124.600 M259.693 122.000 C 259.693 122.770,259.775 123.085,259.876 122.700 C 259.976 122.315,259.976 121.685,259.876 121.300 C 259.775 120.915,259.693 121.230,259.693 122.000 M87.748 125.200 C 87.748 127.510,87.814 128.455,87.895 127.300 C 87.976 126.145,87.976 124.255,87.895 123.100 C 87.814 121.945,87.748 122.890,87.748 125.200 M22.607 123.079 C 23.207 124.514,23.600 125.162,23.600 124.716 C 23.600 124.284,22.385 121.600,22.189 121.600 C 22.079 121.600,22.267 122.266,22.607 123.079 M6.230 124.400 C 6.609 125.390,7.087 126.380,7.291 126.600 C 7.495 126.820,7.350 126.190,6.970 125.200 C 6.591 124.210,6.113 123.220,5.909 123.000 C 5.705 122.780,5.850 123.410,6.230 124.400 M58.790 123.800 C 58.576 124.350,58.209 125.295,57.975 125.900 C 57.741 126.505,57.714 126.820,57.915 126.600 C 58.386 126.083,59.658 122.800,59.387 122.800 C 59.273 122.800,59.005 123.250,58.790 123.800 M371.765 130.000 C 371.765 133.850,371.825 135.425,371.898 133.500 C 371.971 131.575,371.971 128.425,371.898 126.500 C 371.825 124.575,371.765 126.150,371.765 130.000 M260.243 124.400 C 260.719 126.215,263.442 129.200,264.622 129.200 C 264.786 129.200,264.203 128.680,263.326 128.045 C 262.449 127.410,261.337 126.105,260.856 125.145 C 260.374 124.185,260.098 123.850,260.243 124.400 M387.363 130.000 C 387.363 133.630,387.423 135.115,387.498 133.300 C 387.572 131.485,387.572 128.515,387.498 126.700 C 387.423 124.885,387.363 126.370,387.363 130.000 M75.190 125.000 C 74.976 125.550,74.609 126.495,74.375 127.100 C 74.141 127.705,74.114 128.020,74.315 127.800 C 74.786 127.283,76.058 124.000,75.787 124.000 C 75.673 124.000,75.405 124.450,75.190 125.000 M323.052 126.500 C 322.175 127.690,321.915 128.220,322.452 127.724 C 323.297 126.943,325.035 124.399,324.723 124.400 C 324.655 124.401,323.903 125.346,323.052 126.500 M176.893 126.000 C 176.893 126.770,176.975 127.085,177.076 126.700 C 177.176 126.315,177.176 125.685,177.076 125.300 C 176.975 124.915,176.893 125.230,176.893 126.000 M300.100 127.494 C 302.209 127.660,302.301 127.772,301.315 128.969 C 300.671 129.750,300.686 129.748,301.563 128.940 C 302.837 127.768,302.318 127.186,300.076 127.272 L 298.200 127.344 300.100 127.494 M140.901 129.000 C 140.905 129.880,140.987 130.193,141.083 129.695 C 141.179 129.198,141.175 128.478,141.075 128.095 C 140.975 127.713,140.896 128.120,140.901 129.000 M292.291 127.889 C 293.001 127.977,294.261 127.979,295.091 127.892 C 295.921 127.805,295.340 127.733,293.800 127.731 C 292.260 127.729,291.581 127.800,292.291 127.889 M176.546 131.800 C 176.547 134.000,176.614 134.849,176.695 133.687 C 176.776 132.524,176.776 130.724,176.693 129.687 C 176.611 128.649,176.545 129.600,176.546 131.800 M282.700 128.296 C 284.075 128.374,286.325 128.374,287.700 128.296 C 289.075 128.218,287.950 128.154,285.200 128.154 C 282.450 128.154,281.325 128.218,282.700 128.296 M102.914 130.200 C 102.917 131.300,102.995 131.703,103.087 131.095 C 103.179 130.486,103.177 129.586,103.082 129.095 C 102.987 128.603,102.911 129.100,102.914 130.200 M277.105 128.683 C 277.602 128.779,278.322 128.775,278.705 128.675 C 279.087 128.575,278.680 128.496,277.800 128.501 C 276.920 128.505,276.607 128.587,277.105 128.683 M272.300 129.089 C 273.015 129.178,274.185 129.178,274.900 129.089 C 275.615 129.001,275.030 128.928,273.600 128.928 C 272.170 128.928,271.585 129.001,272.300 129.089 M320.559 129.700 C 318.807 131.721,318.287 132.400,318.490 132.400 C 318.607 132.400,319.367 131.590,320.179 130.600 C 321.681 128.766,321.979 128.063,320.559 129.700 M8.428 129.400 C 8.428 129.620,8.686 130.250,9.000 130.800 C 9.314 131.350,9.572 131.620,9.572 131.400 C 9.572 131.180,9.314 130.550,9.000 130.000 C 8.686 129.450,8.428 129.180,8.428 129.400 M25.628 129.400 C 25.628 129.620,25.886 130.250,26.200 130.800 C 26.514 131.350,26.772 131.620,26.772 131.400 C 26.772 131.180,26.514 130.550,26.200 130.000 C 25.886 129.450,25.628 129.180,25.628 129.400 M72.600 131.061 C 72.264 131.865,72.082 132.615,72.195 132.728 C 72.308 132.841,72.400 132.835,72.400 132.716 C 72.400 132.596,72.672 131.846,73.005 131.049 C 73.338 130.252,73.521 129.600,73.411 129.600 C 73.301 129.600,72.936 130.258,72.600 131.061 M266.900 129.876 C 267.285 129.976,267.915 129.976,268.300 129.876 C 268.685 129.775,268.370 129.693,267.600 129.693 C 266.830 129.693,266.515 129.775,266.900 129.876 M201.200 133.200 C 202.085 134.960,202.899 136.400,203.009 136.400 C 203.119 136.400,202.485 134.960,201.600 133.200 C 200.715 131.440,199.901 130.000,199.791 130.000 C 199.681 130.000,200.315 131.440,201.200 133.200 M299.200 131.800 C 298.519 132.790,298.052 133.600,298.162 133.600 C 298.272 133.600,298.919 132.790,299.600 131.800 C 300.281 130.810,300.748 130.000,300.638 130.000 C 300.528 130.000,299.881 130.810,299.200 131.800 M156.509 132.000 C 156.509 132.990,156.587 133.395,156.682 132.900 C 156.778 132.405,156.778 131.595,156.682 131.100 C 156.587 130.605,156.509 131.010,156.509 132.000 M87.328 133.200 C 87.328 134.630,87.401 135.215,87.489 134.500 C 87.578 133.785,87.578 132.615,87.489 131.900 C 87.401 131.185,87.328 131.770,87.328 133.200 M141.348 135.600 C 141.348 137.910,141.414 138.855,141.495 137.700 C 141.576 136.545,141.576 134.655,141.495 133.500 C 141.414 132.345,141.348 133.290,141.348 135.600 M353.344 135.200 C 353.344 137.290,353.412 138.145,353.494 137.100 C 353.576 136.055,353.576 134.345,353.494 133.300 C 353.412 132.255,353.344 133.110,353.344 135.200 M54.600 133.461 C 54.264 134.265,54.082 135.015,54.195 135.128 C 54.308 135.241,54.400 135.235,54.400 135.116 C 54.400 134.996,54.672 134.246,55.005 133.449 C 55.338 132.652,55.521 132.000,55.411 132.000 C 55.301 132.000,54.936 132.658,54.600 133.461 M337.750 136.600 C 337.751 139.020,337.816 139.958,337.896 138.685 C 337.976 137.412,337.975 135.432,337.894 134.285 C 337.814 133.138,337.749 134.180,337.750 136.600 M317.544 133.500 C 316.393 134.889,315.906 135.600,316.104 135.600 C 316.214 135.600,316.786 134.970,317.373 134.200 C 318.463 132.771,318.595 132.232,317.544 133.500 M102.575 144.000 C 102.575 149.830,102.631 152.215,102.699 149.300 C 102.767 146.385,102.767 141.615,102.699 138.700 C 102.631 135.785,102.575 138.170,102.575 144.000 M71.200 134.084 C 71.200 134.204,70.928 134.954,70.595 135.751 C 70.262 136.548,70.079 137.200,70.189 137.200 C 70.506 137.200,71.633 134.300,71.405 134.072 C 71.292 133.959,71.200 133.965,71.200 134.084 M297.115 134.700 C 295.866 136.135,285.812 151.465,286.687 150.600 C 287.128 150.164,297.964 134.000,297.815 134.000 C 297.765 134.000,297.450 134.315,297.115 134.700 M10.828 134.600 C 10.828 134.820,11.086 135.450,11.400 136.000 C 11.714 136.550,11.972 136.820,11.972 136.600 C 11.972 136.380,11.714 135.750,11.400 135.200 C 11.086 134.650,10.828 134.380,10.828 134.600 M156.960 140.600 C 156.961 143.900,157.022 145.197,157.098 143.482 C 157.173 141.767,157.172 139.067,157.097 137.482 C 157.021 135.897,156.959 137.300,156.960 140.600 M53.000 137.061 C 52.664 137.865,52.482 138.615,52.595 138.728 C 52.708 138.841,52.800 138.835,52.800 138.716 C 52.800 138.596,53.072 137.846,53.405 137.049 C 53.738 136.252,53.921 135.600,53.811 135.600 C 53.701 135.600,53.336 136.258,53.000 137.061 M313.808 138.442 C 313.001 139.565,312.532 140.365,312.766 140.221 C 313.252 139.920,315.732 136.400,315.457 136.400 C 315.357 136.400,314.615 137.319,313.808 138.442 M176.120 138.800 C 176.120 140.010,176.195 140.505,176.287 139.900 C 176.378 139.295,176.378 138.305,176.287 137.700 C 176.195 137.095,176.120 137.590,176.120 138.800 M86.985 156.000 C 86.985 166.450,87.036 170.725,87.100 165.500 C 87.163 160.275,87.163 151.725,87.100 146.500 C 87.036 141.275,86.985 145.550,86.985 156.000 M69.600 137.684 C 69.600 137.804,69.328 138.554,68.995 139.351 C 68.662 140.148,68.479 140.800,68.589 140.800 C 68.906 140.800,70.033 137.900,69.805 137.672 C 69.692 137.559,69.600 137.565,69.600 137.684 M204.000 138.496 C 204.000 138.913,205.740 141.993,205.891 141.842 C 205.973 141.761,205.651 140.998,205.177 140.147 C 204.251 138.487,204.000 138.135,204.000 138.496 M386.981 153.400 C 386.980 161.320,387.034 164.617,387.099 160.726 C 387.165 156.835,387.165 150.355,387.100 146.326 C 387.034 142.297,386.981 145.480,386.981 153.400 M31.600 141.600 C 32.049 142.480,32.506 143.200,32.616 143.200 C 32.726 143.200,32.449 142.480,32.000 141.600 C 31.551 140.720,31.094 140.000,30.984 140.000 C 30.874 140.000,31.151 140.720,31.600 141.600 M141.734 143.200 C 141.734 144.850,141.805 145.525,141.891 144.700 C 141.978 143.875,141.978 142.525,141.891 141.700 C 141.805 140.875,141.734 141.550,141.734 143.200 M310.400 143.200 C 309.504 144.520,308.860 145.600,308.970 145.600 C 309.080 145.600,309.904 144.520,310.800 143.200 C 311.696 141.880,312.340 140.800,312.230 140.800 C 312.120 140.800,311.296 141.880,310.400 143.200 M371.377 152.400 C 371.377 158.890,371.432 161.545,371.499 158.300 C 371.566 155.055,371.566 149.745,371.499 146.500 C 371.432 143.255,371.377 145.910,371.377 152.400 M50.465 142.617 C 49.795 144.088,49.923 144.402,50.647 143.065 C 50.986 142.440,51.188 141.854,51.096 141.763 C 51.005 141.671,50.721 142.056,50.465 142.617 M175.760 147.800 C 175.761 151.100,175.822 152.397,175.898 150.682 C 175.973 148.967,175.972 146.267,175.897 144.682 C 175.821 143.097,175.759 144.500,175.760 147.800 M352.973 152.600 C 352.973 158.100,353.030 160.405,353.099 157.723 C 353.168 155.041,353.168 150.541,353.099 147.723 C 353.030 144.905,352.974 147.100,352.973 152.600 M32.800 143.696 C 32.800 144.113,34.540 147.193,34.691 147.042 C 34.773 146.961,34.451 146.198,33.977 145.347 C 33.051 143.687,32.800 143.335,32.800 143.696 M337.369 151.800 C 337.370 156.420,337.428 158.255,337.499 155.878 C 337.570 153.501,337.569 149.721,337.498 147.478 C 337.427 145.235,337.369 147.180,337.369 151.800 M49.000 145.861 C 48.664 146.665,48.482 147.415,48.595 147.528 C 48.708 147.641,48.800 147.635,48.800 147.516 C 48.800 147.396,49.072 146.646,49.405 145.849 C 49.738 145.052,49.921 144.400,49.811 144.400 C 49.701 144.400,49.336 145.058,49.000 145.861 M191.281 150.600 L 191.344 154.200 191.572 151.200 C 191.768 148.617,191.868 148.311,192.288 149.000 C 192.556 149.440,192.777 149.620,192.779 149.400 C 192.781 149.180,192.430 148.550,192.000 148.000 L 191.218 147.000 191.281 150.600 M209.200 148.800 C 209.649 149.680,210.106 150.400,210.216 150.400 C 210.326 150.400,210.049 149.680,209.600 148.800 C 209.151 147.920,208.694 147.200,208.584 147.200 C 208.474 147.200,208.751 147.920,209.200 148.800 M306.800 148.400 C 306.330 149.060,306.036 149.600,306.146 149.600 C 306.256 149.600,306.730 149.060,307.200 148.400 C 307.670 147.740,307.964 147.200,307.854 147.200 C 307.744 147.200,307.270 147.740,306.800 148.400 M142.178 160.200 C 142.178 167.020,142.232 169.866,142.299 166.525 C 142.366 163.184,142.366 157.604,142.299 154.125 C 142.233 150.646,142.178 153.380,142.178 160.200 M157.379 161.800 C 157.379 169.060,157.433 172.086,157.499 168.525 C 157.565 164.964,157.566 159.024,157.499 155.325 C 157.433 151.626,157.379 154.540,157.379 161.800 M19.200 151.600 C 19.649 152.480,20.106 153.200,20.216 153.200 C 20.326 153.200,20.049 152.480,19.600 151.600 C 19.151 150.720,18.694 150.000,18.584 150.000 C 18.474 150.000,18.751 150.720,19.200 151.600 M193.600 151.600 C 194.049 152.480,194.506 153.200,194.616 153.200 C 194.726 153.200,194.449 152.480,194.000 151.600 C 193.551 150.720,193.094 150.000,192.984 150.000 C 192.874 150.000,193.151 150.720,193.600 151.600 M46.465 151.417 C 45.795 152.888,45.923 153.202,46.647 151.865 C 46.986 151.240,47.188 150.654,47.096 150.563 C 47.005 150.471,46.721 150.856,46.465 151.417 M211.200 152.496 C 211.200 152.913,212.940 155.993,213.091 155.842 C 213.173 155.761,212.851 154.998,212.377 154.147 C 211.451 152.487,211.200 152.135,211.200 152.496 M283.304 155.700 C 280.890 159.495,279.912 161.200,280.150 161.200 C 280.268 161.200,281.087 159.985,281.969 158.500 C 282.852 157.015,283.958 155.215,284.426 154.500 C 284.895 153.785,285.192 153.200,285.086 153.200 C 284.981 153.200,284.178 154.325,283.304 155.700 M20.406 153.650 C 20.397 154.005,22.433 157.600,22.642 157.600 C 22.738 157.600,22.460 156.925,22.024 156.100 C 21.078 154.311,20.415 153.306,20.406 153.650 M38.360 154.200 C 39.034 155.505,39.588 156.228,39.585 155.800 C 39.583 155.580,39.214 154.950,38.764 154.400 C 38.221 153.736,38.085 153.669,38.360 154.200 M62.065 154.617 C 61.395 156.088,61.523 156.402,62.247 155.065 C 62.586 154.440,62.788 153.854,62.696 153.763 C 62.605 153.671,62.321 154.056,62.065 154.617 M301.128 157.100 C 298.650 160.838,297.780 162.270,298.272 161.800 C 299.028 161.078,303.369 154.400,303.082 154.400 C 302.992 154.400,302.112 155.615,301.128 157.100 M175.342 159.400 C 175.341 161.380,175.408 162.240,175.492 161.312 C 175.576 160.384,175.577 158.764,175.495 157.712 C 175.412 156.660,175.343 157.420,175.342 159.400 M190.964 163.400 C 190.963 167.140,191.023 168.724,191.097 166.920 C 191.171 165.115,191.172 162.055,191.098 160.120 C 191.025 158.184,190.964 159.660,190.964 163.400 M102.572 166.600 C 102.572 171.660,102.629 173.675,102.699 171.077 C 102.769 168.480,102.768 164.340,102.698 161.877 C 102.628 159.415,102.571 161.540,102.572 166.600 M214.800 159.600 C 215.249 160.480,215.706 161.200,215.816 161.200 C 215.926 161.200,215.649 160.480,215.200 159.600 C 214.751 158.720,214.294 158.000,214.184 158.000 C 214.074 158.000,214.351 158.720,214.800 159.600 M40.800 158.525 C 40.800 158.692,41.103 159.291,41.474 159.857 C 42.147 160.885,43.200 160.391,43.200 159.047 C 43.200 158.827,42.958 158.977,42.663 159.381 C 42.151 160.082,42.096 160.073,41.463 159.169 C 41.098 158.648,40.800 158.358,40.800 158.525 M58.865 161.417 C 58.195 162.888,58.323 163.202,59.047 161.865 C 59.386 161.240,59.588 160.654,59.496 160.563 C 59.405 160.471,59.121 160.856,58.865 161.417 M25.626 163.100 C 27.587 166.399,28.894 168.400,29.088 168.400 C 29.200 168.400,28.983 167.928,28.605 167.352 C 28.227 166.775,27.298 165.245,26.540 163.952 C 25.782 162.658,25.066 161.600,24.948 161.600 C 24.831 161.600,25.136 162.275,25.626 163.100 M200.000 163.600 C 200.449 164.480,200.906 165.200,201.016 165.200 C 201.126 165.200,200.849 164.480,200.400 163.600 C 199.951 162.720,199.494 162.000,199.384 162.000 C 199.274 162.000,199.551 162.720,200.000 163.600 M278.494 163.700 C 276.818 166.527,275.964 168.186,276.677 167.231 C 277.634 165.947,279.664 162.400,279.441 162.400 C 279.344 162.400,278.918 162.985,278.494 163.700 M57.040 165.271 C 56.472 166.409,56.067 167.401,56.140 167.473 C 56.247 167.581,56.924 166.337,58.302 163.500 C 58.382 163.335,58.363 163.200,58.259 163.200 C 58.156 163.200,57.607 164.132,57.040 165.271 M296.646 164.200 C 296.291 164.750,295.709 165.695,295.353 166.300 L 294.705 167.400 295.510 166.426 C 296.460 165.276,297.721 163.200,297.469 163.200 C 297.371 163.200,297.001 163.650,296.646 164.200 M337.767 172.000 C 337.767 176.290,337.826 178.045,337.898 175.900 C 337.970 173.755,337.970 170.245,337.898 168.100 C 337.826 165.955,337.767 167.710,337.767 172.000 M174.982 181.200 C 174.982 189.890,175.035 193.445,175.100 189.100 C 175.164 184.755,175.164 177.645,175.100 173.300 C 175.035 168.955,174.982 172.510,174.982 181.200 M218.800 167.200 C 219.249 168.080,219.706 168.800,219.816 168.800 C 219.926 168.800,219.649 168.080,219.200 167.200 C 218.751 166.320,218.294 165.600,218.184 165.600 C 218.074 165.600,218.351 166.320,218.800 167.200 M353.367 175.200 C 353.367 179.490,353.426 181.245,353.498 179.100 C 353.570 176.955,353.570 173.445,353.498 171.300 C 353.426 169.155,353.367 170.910,353.367 175.200 M293.753 168.900 C 292.376 171.236,292.286 171.435,292.987 170.600 C 293.800 169.632,294.500 168.400,294.238 168.400 C 294.133 168.400,293.915 168.625,293.753 168.900 M371.778 181.800 C 371.779 188.840,371.833 191.664,371.899 188.075 C 371.966 184.486,371.966 178.726,371.899 175.275 C 371.833 171.824,371.778 174.760,371.778 181.800 M29.812 170.000 C 30.424 171.114,34.106 176.597,34.513 177.000 C 35.110 177.590,34.552 176.644,32.275 173.200 C 30.404 170.371,29.049 168.611,29.812 170.000 M222.000 173.200 C 222.449 174.080,222.906 174.800,223.016 174.800 C 223.126 174.800,222.849 174.080,222.400 173.200 C 221.951 172.320,221.494 171.600,221.384 171.600 C 221.274 171.600,221.551 172.320,222.000 173.200 M387.377 183.400 C 387.377 190.000,387.432 192.756,387.499 189.525 C 387.566 186.293,387.566 180.893,387.499 177.525 C 387.432 174.156,387.377 176.800,387.377 183.400 M291.014 173.435 C 290.641 174.004,290.405 174.538,290.489 174.622 C 290.573 174.707,290.958 174.241,291.344 173.588 C 292.206 172.128,291.948 172.009,291.014 173.435 M52.400 174.400 C 51.951 175.280,51.674 176.000,51.784 176.000 C 51.894 176.000,52.351 175.280,52.800 174.400 C 53.249 173.520,53.526 172.800,53.416 172.800 C 53.306 172.800,52.849 173.520,52.400 174.400 M141.693 175.200 C 141.693 175.970,141.775 176.285,141.876 175.900 C 141.976 175.515,141.976 174.885,141.876 174.500 C 141.775 174.115,141.693 174.430,141.693 175.200 M206.045 174.604 C 206.441 175.638,208.546 179.187,208.683 179.050 C 208.767 178.966,208.269 177.930,207.576 176.748 C 206.342 174.646,205.736 173.797,206.045 174.604 M289.294 176.500 C 287.618 179.327,286.764 180.986,287.477 180.031 C 288.434 178.747,290.464 175.200,290.241 175.200 C 290.144 175.200,289.718 175.785,289.294 176.500 M87.293 177.200 C 87.293 177.970,87.375 178.285,87.476 177.900 C 87.576 177.515,87.576 176.885,87.476 176.500 C 87.375 176.115,87.293 176.430,87.293 177.200 M156.931 178.600 C 156.933 180.140,157.005 180.721,157.092 179.891 C 157.179 179.061,157.177 177.801,157.089 177.091 C 157.000 176.381,156.929 177.060,156.931 178.600 M50.864 177.419 C 50.594 178.011,50.431 180.062,50.473 182.319 L 50.547 186.200 50.789 182.000 C 50.923 179.690,51.179 177.485,51.359 177.100 C 51.538 176.715,51.605 176.400,51.507 176.400 C 51.409 176.400,51.120 176.858,50.864 177.419 M141.320 179.200 C 141.320 180.410,141.395 180.905,141.487 180.300 C 141.578 179.695,141.578 178.705,141.487 178.100 C 141.395 177.495,141.320 177.990,141.320 179.200 M224.760 178.200 C 225.434 179.505,225.988 180.228,225.985 179.800 C 225.983 179.580,225.614 178.950,225.164 178.400 C 224.621 177.736,224.485 177.669,224.760 178.200 M103.314 180.600 C 103.317 181.700,103.395 182.103,103.487 181.495 C 103.579 180.886,103.577 179.986,103.482 179.495 C 103.387 179.003,103.311 179.500,103.314 180.600 M87.720 181.200 C 87.720 182.410,87.795 182.905,87.887 182.300 C 87.978 181.695,87.978 180.705,87.887 180.100 C 87.795 179.495,87.720 179.990,87.720 181.200 M190.564 187.800 C 190.563 191.540,190.623 193.124,190.697 191.320 C 190.771 189.515,190.772 186.455,190.698 184.520 C 190.625 182.584,190.564 184.060,190.564 187.800 M210.015 181.800 C 210.017 182.020,210.386 182.650,210.836 183.200 C 211.379 183.864,211.515 183.931,211.240 183.400 C 210.566 182.095,210.012 181.372,210.015 181.800 M103.868 184.400 C 104.000 185.390,104.255 186.470,104.436 186.800 C 104.840 187.536,104.414 184.529,103.955 183.400 C 103.760 182.920,103.725 183.321,103.868 184.400 M140.493 184.400 C 140.493 185.170,140.575 185.485,140.676 185.100 C 140.776 184.715,140.776 184.085,140.676 183.700 C 140.575 183.315,140.493 183.630,140.493 184.400 M156.101 185.000 C 156.105 185.880,156.187 186.193,156.283 185.695 C 156.379 185.198,156.375 184.478,156.275 184.095 C 156.175 183.713,156.096 184.120,156.101 185.000 M338.170 192.600 C 338.171 197.440,338.229 199.365,338.299 196.878 C 338.369 194.391,338.369 190.431,338.298 188.078 C 338.228 185.725,338.170 187.760,338.170 192.600 M211.615 184.600 C 211.617 184.820,211.986 185.450,212.436 186.000 C 212.979 186.664,213.115 186.731,212.840 186.200 C 212.166 184.895,211.612 184.172,211.615 184.600 M88.501 186.600 C 88.505 187.480,88.587 187.793,88.683 187.295 C 88.779 186.798,88.775 186.078,88.675 185.695 C 88.575 185.313,88.496 185.720,88.501 186.600 M353.769 193.400 C 353.770 198.020,353.828 199.855,353.899 197.478 C 353.970 195.101,353.969 191.321,353.898 189.078 C 353.827 186.835,353.769 188.780,353.769 193.400 M139.849 186.615 C 139.712 186.973,139.615 187.566,139.634 187.933 C 139.653 188.300,139.827 188.069,140.021 187.420 C 140.398 186.158,140.265 185.533,139.849 186.615 M104.839 188.200 C 104.845 188.640,105.291 189.900,105.830 191.000 C 106.859 193.098,106.798 192.721,105.569 189.400 C 105.162 188.300,104.833 187.760,104.839 188.200 M214.691 189.831 C 215.301 190.947,216.119 192.297,216.509 192.831 C 216.900 193.364,216.720 192.886,216.109 191.769 C 215.499 190.653,214.681 189.303,214.291 188.769 C 213.900 188.236,214.080 188.714,214.691 189.831 M35.365 196.000 C 35.365 199.850,35.425 201.425,35.498 199.500 C 35.571 197.575,35.571 194.425,35.498 192.500 C 35.425 190.575,35.365 192.150,35.365 196.000 M89.224 190.138 C 89.196 190.991,90.405 195.328,90.613 195.120 C 90.689 195.044,90.413 193.726,90.000 192.191 C 89.586 190.656,89.237 189.732,89.224 190.138 M244.557 196.400 C 244.557 199.370,244.620 200.585,244.697 199.100 C 244.774 197.615,244.774 195.185,244.697 193.700 C 244.620 192.215,244.557 193.430,244.557 196.400 M154.446 192.067 C 154.421 192.434,154.296 193.064,154.170 193.467 C 153.952 194.162,153.963 194.163,154.397 193.487 C 154.648 193.096,154.773 192.466,154.673 192.087 C 154.511 191.468,154.488 191.466,154.446 192.067 M50.966 201.600 C 50.966 205.670,51.025 207.335,51.098 205.300 C 51.171 203.265,51.171 199.935,51.098 197.900 C 51.025 195.865,50.966 197.530,50.966 201.600 M153.500 195.084 C 153.389 195.478,152.903 196.790,152.421 198.000 C 151.938 199.210,151.708 200.020,151.909 199.800 C 152.458 199.200,154.135 194.802,153.903 194.570 C 153.792 194.459,153.611 194.690,153.500 195.084 M218.209 195.826 C 218.581 196.501,219.241 197.491,219.676 198.026 L 220.467 199.000 219.791 197.774 C 219.419 197.099,218.759 196.109,218.324 195.574 L 217.533 194.600 218.209 195.826 M108.683 196.200 C 109.723 197.687,111.035 198.886,112.600 199.778 C 113.768 200.442,113.773 200.442,112.800 199.753 C 112.250 199.364,110.910 198.135,109.823 197.022 C 108.713 195.888,108.213 195.527,108.683 196.200 M277.204 198.791 C 276.322 200.546,275.600 202.076,275.600 202.191 C 275.600 202.306,278.465 202.400,281.967 202.400 C 285.916 202.400,288.411 202.556,288.537 202.810 C 288.649 203.036,288.694 202.990,288.637 202.710 C 288.560 202.328,286.955 202.172,282.268 202.090 L 276.001 201.980 277.605 198.790 C 278.487 197.035,279.119 195.600,279.009 195.600 C 278.899 195.600,278.087 197.036,277.204 198.791 M302.029 197.225 C 301.099 197.899,299.857 199.237,299.269 200.199 C 298.269 201.835,298.072 201.957,296.200 202.100 L 294.200 202.252 296.262 202.326 C 298.306 202.399,298.333 202.385,299.371 200.614 C 299.947 199.631,301.089 198.336,301.909 197.736 C 303.811 196.343,304.213 196.000,303.940 196.000 C 303.819 196.000,302.959 196.551,302.029 197.225 M314.000 196.094 C 314.110 196.213,315.100 196.987,316.200 197.812 C 317.378 198.695,317.840 198.919,317.324 198.356 C 316.842 197.830,315.852 197.057,315.124 196.638 C 314.396 196.219,313.890 195.974,314.000 196.094 M372.140 199.600 C 372.140 201.470,372.209 202.235,372.293 201.300 C 372.377 200.365,372.377 198.835,372.293 197.900 C 372.209 196.965,372.140 197.730,372.140 199.600 M134.594 197.609 C 134.455 197.834,133.412 198.644,132.276 199.409 C 131.140 200.174,130.356 200.800,130.533 200.800 C 130.989 200.800,134.141 198.594,134.772 197.834 C 135.061 197.485,135.197 197.200,135.073 197.200 C 134.949 197.200,134.733 197.384,134.594 197.609 M387.737 200.600 C 387.739 202.360,387.809 203.030,387.893 202.089 C 387.978 201.149,387.977 199.709,387.891 198.889 C 387.805 198.070,387.736 198.840,387.737 200.600 M91.600 198.084 C 91.600 198.516,92.815 201.200,93.011 201.200 C 93.121 201.200,92.933 200.534,92.593 199.721 C 91.993 198.286,91.600 197.638,91.600 198.084 M260.435 198.900 C 260.246 199.395,259.440 201.410,258.645 203.378 C 257.850 205.345,257.215 207.235,257.234 207.578 C 257.253 207.920,257.412 207.750,257.586 207.200 C 257.761 206.650,258.286 205.255,258.752 204.100 C 260.800 199.029,261.176 198.000,260.984 198.000 C 260.872 198.000,260.625 198.405,260.435 198.900 M175.350 203.800 C 175.351 206.220,175.416 207.158,175.496 205.885 C 175.576 204.612,175.575 202.632,175.494 201.485 C 175.414 200.338,175.349 201.380,175.350 203.800 M221.014 200.400 C 221.808 201.837,228.433 211.600,228.614 211.600 C 228.838 211.600,221.727 200.826,221.090 200.200 C 220.815 199.930,220.790 199.995,221.014 200.400 M114.800 201.000 C 115.350 201.314,116.160 201.570,116.600 201.568 C 117.040 201.566,116.680 201.305,115.800 200.988 C 113.796 200.266,113.522 200.270,114.800 201.000 M149.723 203.227 C 148.811 204.756,148.226 205.907,148.424 205.785 C 148.865 205.512,151.683 200.750,151.507 200.574 C 151.437 200.504,150.634 201.698,149.723 203.227 M93.215 201.800 C 93.217 202.020,93.586 202.650,94.036 203.200 C 94.579 203.864,94.715 203.931,94.440 203.400 C 93.766 202.095,93.212 201.372,93.215 201.800 M120.900 202.294 C 121.945 202.376,123.655 202.376,124.700 202.294 C 125.745 202.212,124.890 202.144,122.800 202.144 C 120.710 202.144,119.855 202.212,120.900 202.294 M190.944 205.600 C 190.944 207.690,191.012 208.545,191.094 207.500 C 191.176 206.455,191.176 204.745,191.094 203.700 C 191.012 202.655,190.944 203.510,190.944 205.600 M290.326 204.799 C 288.903 206.276,288.414 207.085,288.454 207.899 C 288.508 208.978,288.513 208.980,288.691 208.000 C 288.935 206.653,290.611 204.504,292.146 203.567 C 292.836 203.147,293.142 202.802,292.826 202.801 C 292.511 202.801,291.386 203.699,290.326 204.799 M326.130 204.000 C 326.674 204.770,327.206 205.760,327.313 206.200 C 327.504 206.988,327.508 206.987,327.554 206.185 C 327.579 205.737,327.047 204.747,326.371 203.985 L 325.142 202.600 326.130 204.000 M338.537 205.800 C 338.539 207.560,338.609 208.230,338.693 207.289 C 338.778 206.349,338.777 204.909,338.691 204.089 C 338.605 203.270,338.536 204.040,338.537 205.800 M244.946 207.800 C 244.947 210.000,245.014 210.849,245.095 209.687 C 245.176 208.524,245.176 206.724,245.093 205.687 C 245.011 204.649,244.945 205.600,244.946 207.800 M354.146 207.800 C 354.147 210.000,354.214 210.849,354.295 209.687 C 354.376 208.524,354.376 206.724,354.293 205.687 C 354.211 204.649,354.145 205.600,354.146 207.800 M372.461 208.200 C 372.434 210.180,372.545 212.009,372.707 212.264 C 372.870 212.519,372.950 211.259,372.885 209.464 C 372.712 204.672,372.516 204.087,372.461 208.200 M286.855 206.646 C 286.575 207.501,286.414 209.280,286.498 210.600 L 286.649 213.000 286.724 210.274 C 286.766 208.774,286.992 207.189,287.226 206.752 C 287.460 206.314,287.587 205.761,287.508 205.524 C 287.429 205.286,287.135 205.791,286.855 206.646 M388.080 208.067 C 388.036 209.754,387.896 211.464,387.770 211.867 C 387.556 212.547,387.572 212.550,387.987 211.905 C 388.252 211.492,388.378 209.951,388.297 208.105 L 388.161 205.000 388.080 208.067 M96.326 206.600 C 97.139 207.804,100.294 210.919,101.811 212.014 C 102.257 212.336,101.681 211.738,100.532 210.685 C 99.382 209.632,97.783 208.012,96.979 207.085 C 96.166 206.149,95.876 205.934,96.326 206.600 M35.669 208.965 C 35.581 212.982,37.958 217.239,40.262 217.193 C 40.448 217.190,40.021 216.816,39.314 216.363 C 37.126 214.962,36.230 213.042,35.969 209.200 L 35.738 205.800 35.669 208.965 M144.989 209.273 C 143.455 210.853,142.830 211.618,143.600 210.973 C 145.032 209.773,148.235 206.400,147.941 206.400 C 147.852 206.400,146.523 207.693,144.989 209.273 M329.400 208.257 C 331.437 210.064,332.187 210.591,331.402 209.663 C 330.966 209.148,330.247 208.541,329.804 208.314 C 329.362 208.087,329.180 208.062,329.400 208.257 M175.693 211.200 C 175.693 211.970,175.775 212.285,175.876 211.900 C 175.976 211.515,175.976 210.885,175.876 210.500 C 175.775 210.115,175.693 210.430,175.693 211.200 M338.800 211.576 C 338.800 212.223,338.942 212.841,339.116 212.948 C 339.290 213.056,339.361 212.527,339.273 211.772 C 339.076 210.091,338.800 209.977,338.800 211.576 M332.093 212.000 C 332.093 212.770,332.175 213.085,332.276 212.700 C 332.376 212.315,332.376 211.685,332.276 211.300 C 332.175 210.915,332.093 211.230,332.093 212.000 M257.219 211.800 C 257.185 213.510,260.497 217.216,262.038 217.191 C 262.347 217.186,262.034 216.903,261.342 216.561 C 259.625 215.714,258.437 214.371,257.783 212.538 C 257.463 211.640,257.228 211.333,257.219 211.800 M229.775 213.332 C 230.391 214.139,230.976 214.800,231.075 214.800 C 231.353 214.800,229.621 212.460,229.109 212.144 C 228.859 211.989,229.159 212.524,229.775 213.332 M243.931 213.402 C 243.587 214.161,243.473 214.678,243.678 214.552 C 244.086 214.299,244.902 212.368,244.689 212.156 C 244.616 212.083,244.275 212.644,243.931 213.402 M190.400 212.909 C 190.400 213.189,189.844 214.134,189.166 215.009 L 187.931 216.600 189.366 215.033 C 190.619 213.665,191.212 212.400,190.600 212.400 C 190.490 212.400,190.400 212.629,190.400 212.909 M387.200 213.132 C 387.200 213.388,386.532 214.363,385.715 215.299 C 384.305 216.913,384.296 216.939,385.549 215.800 C 387.000 214.481,387.793 213.260,387.432 212.899 C 387.305 212.771,387.200 212.876,387.200 213.132 M373.200 213.511 C 373.200 214.155,376.257 217.201,376.900 217.197 C 377.175 217.196,376.860 216.841,376.200 216.410 C 375.540 215.978,374.595 215.039,374.100 214.323 C 373.605 213.608,373.200 213.242,373.200 213.511 M49.026 215.100 C 48.162 216.205,48.093 216.390,48.763 215.804 C 49.565 215.104,50.623 213.600,50.314 213.600 C 50.251 213.600,49.672 214.275,49.026 215.100 M332.054 214.581 C 332.021 215.311,331.503 216.290,330.700 217.144 C 329.558 218.358,329.531 218.433,330.475 217.763 C 331.869 216.774,332.517 215.560,332.290 214.360 C 332.131 213.519,332.102 213.547,332.054 214.581 M339.600 213.855 C 339.600 214.068,340.275 214.863,341.100 215.622 L 342.600 217.000 341.200 215.404 C 340.430 214.527,339.755 213.732,339.700 213.638 C 339.645 213.544,339.600 213.641,339.600 213.855 M178.343 215.900 C 179.108 216.615,179.923 217.200,180.156 217.200 C 180.388 217.200,180.133 216.902,179.589 216.538 C 179.045 216.173,178.230 215.588,177.777 215.238 C 177.324 214.887,177.579 215.185,178.343 215.900 M135.000 215.618 C 133.900 216.030,133.293 216.374,133.651 216.383 C 134.379 216.402,137.200 215.298,137.200 214.995 C 137.200 214.888,137.155 214.816,137.100 214.835 C 137.045 214.854,136.100 215.206,135.000 215.618 M351.041 216.027 C 350.183 216.672,349.650 217.200,349.856 217.200 C 350.062 217.200,350.853 216.667,351.615 216.016 C 353.387 214.502,353.061 214.508,351.041 216.027 M241.220 216.431 C 238.990 217.895,235.753 218.056,233.700 216.804 C 232.985 216.368,232.400 216.102,232.400 216.212 C 232.400 216.944,235.242 217.997,237.222 217.999 C 239.245 218.000,243.200 216.287,243.200 215.409 C 243.200 215.126,243.235 215.108,241.220 216.431 M109.541 216.101 C 109.743 216.303,110.333 216.401,110.854 216.319 C 111.655 216.193,111.598 216.137,110.487 215.952 C 109.693 215.821,109.319 215.879,109.541 216.101 M287.895 216.564 L 288.091 217.588 276.445 217.703 L 264.800 217.818 276.495 217.809 C 288.760 217.800,289.792 217.632,288.087 215.927 C 287.837 215.677,287.769 215.902,287.895 216.564 M130.800 216.800 C 129.416 217.091,129.414 217.095,130.600 217.141 C 131.260 217.167,132.070 217.013,132.400 216.800 C 133.066 216.370,132.845 216.370,130.800 216.800 M113.300 217.076 C 113.685 217.176,114.315 217.176,114.700 217.076 C 115.085 216.975,114.770 216.893,114.000 216.893 C 113.230 216.893,112.915 216.975,113.300 217.076 M382.654 217.258 C 382.243 217.496,380.931 217.610,379.736 217.511 C 378.526 217.411,377.794 217.476,378.083 217.660 C 378.911 218.185,382.110 218.023,383.200 217.400 C 383.750 217.086,384.020 216.827,383.800 216.826 C 383.580 216.825,383.064 217.019,382.654 217.258 M346.600 217.600 L 344.600 217.874 346.400 217.931 C 347.390 217.962,348.470 217.813,348.800 217.600 C 349.130 217.387,349.220 217.238,349.000 217.269 C 348.780 217.300,347.700 217.449,346.600 217.600 M42.505 217.887 C 43.114 217.979,44.014 217.977,44.505 217.882 C 44.997 217.787,44.500 217.711,43.400 217.714 C 42.300 217.717,41.897 217.795,42.505 217.887 M120.117 217.897 C 121.611 217.974,123.951 217.974,125.317 217.896 C 126.682 217.818,125.460 217.755,122.600 217.755 C 119.740 217.756,118.622 217.820,120.117 217.897 M182.505 217.887 C 183.114 217.979,184.014 217.977,184.505 217.882 C 184.997 217.787,184.500 217.711,183.400 217.714 C 182.300 217.717,181.897 217.795,182.505 217.887 M302.527 218.700 C 307.547 218.763,315.647 218.763,320.527 218.700 C 325.407 218.636,321.300 218.584,311.400 218.584 C 301.500 218.584,297.507 218.636,302.527 218.700 " stroke="none" fill="#2c4c5c" fill-rule="evenodd"></path></g></svg>